<svg id="Vordergrund" xmlns="http://www.w3.org/2000/svg" viewBox="0 0 481.86 201.08"><defs><style>.cls-1{fill:#231f20;}</style></defs><title>disney</title><path class="cls-1" d="M76.27,92.08c-18,1.34-40.95,4.67-40.77,11,.2,6.58,17.14,19.23,39.38,27.47C75.91,117,76.17,102.76,76.27,92.08ZM10.49,24.23C4.57,24.41.11,21.82,0,18.21-.08,15.57,5.7,7.32,9.23,6,11.64,5.07,23.38.61,43,0a198,198,0,0,1,30,2.22c60.53,9,124.08,55.13,125.3,96.07C199,126.17,175,152.3,128,153.7a120.79,120.79,0,0,1-34.36-3.91c-.22,6.84.29,10.46-9.41,10.75-5.93.18-8.24-9.43-9.11-17.25-28.36-12.58-45.45-33-45.69-41.09-.36-12,21.49-22,47-26,.36-9.94,2.05-35.27,7.3-35.42,2.11-.06,6.48,4.83,8.13,12.32,1.5,6.8,1.65,19.2,1.67,21.41l1.93-.07c35.84-1.06,57.33,10.15,57.72,23.42.31,10.29-8.8,15.56-13.58,15.7s-10.38-2.57-10.43-4c-.08-2.84,10.2-3.5,10.07-8.08-.21-6.91-28.71-9.93-46.27-10,0,6-.1,13.13,0,18,.14,4.64.43,16.63.57,26.62a102.76,102.76,0,0,0,24.22,2.36c18.93-.56,62.18-7.46,61.21-40C177.69,53,88,11.3,39.89,12.73,21,13.29,9.6,15.32,9.65,17.18c0,1.24,9.22,1.72,9.29,4.17S13.73,24.13,10.49,24.23Zm201.44,49.6c3.09-.09,7.52,7.33,7.66,12s1.25,28.88,1.57,35.86a104.48,104.48,0,0,1-.36,16.78c-.45,3.09-1.58,4.62-6.89,4.78s-7.79-3-8.24-7.69-.85-18-.61-24.61.54-19.38,1.41-27.35S209.47,73.9,211.93,73.83Zm30.76-54.47c-.88-2.2-3.84-6.65-14.4-6.33-23,.68-40.7,17.72-40.3,31.15.13,4.36,2.23,8.18,5.33,11.31a11.94,11.94,0,0,0-.87,4.5c.07,2.33,3.58,8.49,6.28,8.41,2.28-.07,3.83-2.2,6-5.66a28.06,28.06,0,0,0,10.45,2.1c21.63-.64,41.26-20.91,40.87-33.88C255.91,25,252,19.22,242.69,19.36ZM210,51.58c2.66-3.76,16.47-22.25,30.7-22.67,4.18-.13,5.28,2.46,5.36,5.31.14,4.45-7.92,17.44-26,18A52.1,52.1,0,0,1,210,51.58Zm-11.25-6.14a5.51,5.51,0,0,1-.68-2.75c-.09-3,5-14.36,17.94-15.29a54.66,54.66,0,0,0-9.9,8.84A92.76,92.76,0,0,0,198.79,45.44ZM268,72.58c12.66-.37,28.53,1.27,28.65,5.32.07,2.37-1.17,7.31-7.93,8-8,.81-48.17,2.51-48,7.48.07,2.62,12.15,3.2,23.24,3.87,11.38.69,29.66,1.12,30.21,19.55.43,14.54-5.07,17.62-7.55,18.77-3.15,1.47-13.71,5.49-21.81,5.73-24.42.73-34.49-13.3-34.7-20.43-.18-6.33,6.33-12,17.28-12.28s27.91,3.63,28,8.13c.11,3.65-7.37,5.53-10.68,5.63-14.95.44-14.21-5.63-22.83-5.37-4.91.14-11.79,10.57,12.8,9.84,21.9-.65,28.54-7.87,28.42-11.75-.15-5.14-15.87-7.64-25-8.11s-22.74-.41-27.39-3.36-4-9.6-2.39-15.11C231.8,77,255.37,73,268,72.58Zm43.25,4.77c8.56-.25,26.49,38.55,29.52,38.46s.77-9.06-1.14-19c-4.32-22.42-11.05-34-4.72-34.17,4.67-.14,20,14.71,20.87,43.45.4,13.35-1.48,30.82-13.57,31.18-11.47.34-24.54-35.87-27.5-35.78-1.6,0-1.74,22.43-2.16,29.18s-2.78,10.36-6.54,10.47c-5.71.17-8.21-5.29-8.53-16.07S300.74,77.66,311.29,77.35Zm87,21c4.05-.12,7.63-.79,7.27,4.47s-.58,7.38-4.8,7.51l-21.66.64c-.71,2.41-2.56,8.62-3.4,11.23-1,3.29,2.25,2.56,6.49,1.35S398,120.16,402.71,120s8.27,7.41,5.55,10-17.37,15-32.66,15.41c-6.56.2-15.46-5.53-15.77-15.8-.16-5.43,2-12.73,4.11-18.39-.51-.32-.89-1.07-1.19-2.7-.68-3.7-2.35-7.76,3.8-8.45.49-.06,1.11-.12,1.83-.18l5.08-10.45a18.72,18.72,0,0,1-5.21-1.41c-3.74-1.78-6.64-6.37-6.71-8.42-.13-4.51,32.91-7.2,40.55-7.43,8.22-.24,10.55,1.34,13.17,5.09s3.62,6.4,3.65,7.43-.92,3.56-10.85,3.86c-5.08.15-13.29,1-21.17,1.3L383.46,99C391.13,98.64,398.3,98.34,398.3,98.34Zm22.38,31.24c-8.87,17.5-14.84,36-14.42,50,.47,15.72,10.12,21.59,13.06,21.5s3.08-4.74,3.61-8.21a232.78,232.78,0,0,1,14-51.66,25.3,25.3,0,0,0,6.76.79c18-.53,38.84-22,38.16-44.9-.36-12.09-5-20.65-12.73-20.42-11.32.33-27.6,17.45-40.68,38.94-1.16-8.72,5.71-22.14,11.57-31.53,4.12-6.59,3.4-14.43,1.69-14.38-2.4.07-25.6,19.71-24.8,46.66A25.84,25.84,0,0,0,420.68,129.58Zm24-5.45c10.83-21.17,22-33.24,25.93-33.36C477.42,90.57,471.65,121.37,444.68,124.13Z"/></svg>