<?xml version="1.0" encoding="utf-8"?>
<!-- Generator: Adobe Illustrator 22.1.0, SVG Export Plug-In . SVG Version: 6.00 Build 0)  -->
<svg version="1.1" id="Layer_1" xmlns="http://www.w3.org/2000/svg" xmlns:xlink="http://www.w3.org/1999/xlink" x="0px" y="0px"
	 viewBox="0 0 500 89.5" style="enable-background:new 0 0 500 89.5;" xml:space="preserve">
<path d="M465.8,43.8c6.5-1.5,13.3,1.1,17.2,6.5L453.2,57C454.2,50.7,459,45.4,465.8,43.8z M483.2,68.7c-2.4,3.4-5.9,5.8-10,6.7
	c-6.8,1.5-13.6-1.3-17.3-6.6l29.9-6.8l4.9-1.1l9.3-2.1c-0.1-2-0.3-4-0.8-5.9c-3.8-16.1-20.2-26.1-36.6-22.4
	c-16.4,3.7-26.7,19.8-22.9,35.9c3.8,16.1,20.2,26.1,36.6,22.4c9.7-2.2,17.2-8.7,21-16.9L483.2,68.7z M412.8,87.9V45.3h-9.2V30.7h9.2
	v-20h15.6v20h11.7v14.5h-11.7v42.7H412.8z M382.9,87.9H398V30.7h-15.1V87.9z M380.9,10.6c0-5.3,4.2-9.3,9.6-9.3c5.4,0,9.5,4,9.5,9.3
	c0,5.3-4.1,9.4-9.5,9.4C385.1,20,380.9,15.9,380.9,10.6z M377.6,30.9c-7.7,0.4-12.3,1.6-16.9,4.9v-5.1h-15.1v57.2h15.1V59.9
	c0-8.8,2.2-13.8,16.9-14.3C377.6,45.5,377.6,30.9,377.6,30.9z M293.5,60.2c0.4,8.3,7.6,15.4,16.5,15.4c9,0,16.4-7.4,16.4-16.1
	c0-8.6-7.4-16-16.4-16c-8.9,0-16.2,7.1-16.5,15.4C293.5,58.9,293.5,60.2,293.5,60.2z M278.7,87.9V3.4L293.9,0v35
	c4.7-3.7,10.2-5.3,16.2-5.3c17.2,0,30.9,13.2,30.9,29.9c0,16.5-13.8,30-30.9,30c-6,0-11.5-1.6-16.2-5.3v3.7L278.7,87.9L278.7,87.9z
	 M246.6,87.9V45h-9.2V30.7h9.2v-20l15.6-3.5v23.6H274V45h-11.7v43H246.6z M218.9,87.9V57.4c0-11.1-6-13.5-12-13.5
	c-6,0-12,2.3-12,13.2v30.8h-15.1V30.7h15.1V35c3.3-2.4,7.4-5.3,15.4-5.3C223,29.7,234,37,234,55v33H218.9z M141.5,43.8
	c6.7-1.5,13.5,1.2,17.2,6.5L128.9,57C129.9,50.7,134.7,45.4,141.5,43.8z M158.9,68.7c-2.4,3.4-5.9,5.8-10,6.7
	c-6.6,1.5-13.4-1.1-17.3-6.6l29.9-6.8l4.9-1.1l9.3-2.1c-0.1-2-0.3-4-0.8-5.9c-3.8-16.1-20.2-26.1-36.6-22.4
	c-16.4,3.7-26.7,19.8-22.9,35.9c3.8,16.1,20.2,26.1,36.6,22.4c9.7-2.2,17.2-8.7,21-16.9C173,71.8,158.9,68.7,158.9,68.7z M79.9,87.9
	L56.4,30.7h16.5l14.9,38.8l15-38.8h16.5L95.7,87.9H79.9z M26.8,43.8c6.7-1.5,13.5,1.2,17.2,6.5L14.2,57
	C15.3,50.7,20.1,45.3,26.8,43.8z M44.2,68.6c-2.4,3.4-5.9,5.8-10,6.7c-6.8,1.5-13.6-1.3-17.3-6.6L46.9,62l4.9-1.1l9.3-2.1
	c-0.1-2-0.3-4-0.8-5.9c-3.8-16.1-20.2-26.1-36.6-22.4C7.2,34.2-3,50.2,0.8,66.3S21,92.4,37.4,88.7c9.7-2.2,17.2-8.7,21-16.9
	L44.2,68.6L44.2,68.6z"/>
</svg>
