<?xml version="1.0" encoding="utf-8"?>
<!-- Generator: Adobe Illustrator 22.1.0, SVG Export Plug-In . SVG Version: 6.00 Build 0)  -->
<svg version="1.1" id="Layer_1" xmlns="http://www.w3.org/2000/svg" xmlns:xlink="http://www.w3.org/1999/xlink" x="0px" y="0px"
	 viewBox="0 0 207 38" style="enable-background:new 0 0 207 38;" xml:space="preserve">
<path d="M89.6,3.8h2.5V0.2h-2.5V3.8z M89.6,30.3h2.5V8.6h-2.5V30.3z M98,30.3V8.6h2.5v3.3c2.3-2.3,3.9-3.7,7.4-3.7
	c2.5,0,4.7,1.5,5.4,4c2-2.3,4.1-4,7.3-4c3.9,0,5.8,2.1,5.8,5.9v16.3h-2.5V13.8c0-2.4-1.4-3.6-3.8-3.6c-2,0-5.2,2-6.5,4.1v16h-2.5
	V13.8c0-2.4-1.4-3.6-3.8-3.6c-2,0-5.2,2-6.5,4.1v16H98z M144,18c-10.1,2.2-11.5,4.2-11.5,7c0,2.4,1.7,3.7,4,3.7
	c2.4,0,5.3-1.4,7.5-3.6V18z M144.4,30.3l-0.3-2.6c-2.6,2-4.6,3.1-8,3.1c-3.4,0-6.1-2.1-6.1-5.7c0-5.9,4.9-7,14.2-9v-1.5
	c0-2.9-1.3-4.3-5.1-4.3c-2.6,0-4.8,1.4-6.4,3.9l-1.7-1c1.9-3.5,4.6-4.9,8.2-4.9c5,0,7.4,2,7.4,6.8v11.4c0,1.1,0.1,2.5,0.3,4H144.4z
	 M159.3,21.2c3.6,0,5.7-1.7,5.7-5.4c0-3.8-2.2-5.6-5.7-5.6c-3.6,0-5.7,2.2-5.7,5.6C153.5,19.5,156.1,21.2,159.3,21.2L159.3,21.2z
	 M152.5,32.4c0,2.1,2.1,3.6,6.7,3.6c5.5,0,7.9-1.5,7.9-3.7c0-1.8-1.4-3.6-8.1-3.6C154,28.7,152.5,30.5,152.5,32.4L152.5,32.4z
	 M169.5,10c-1.1,0-2.6,0.1-3.5,1c1,1.2,1.6,2.5,1.6,4.6c0,5.3-3.9,7.6-8.5,7.6c-1.4,0-2.5-0.3-3.6-0.7c-1.4,0.5-2,1.3-2,2.1
	c0,1.3,0.9,1.9,6.8,1.9c6.6,0,9.4,2.1,9.4,5.6c0,3.2-2.5,5.9-10.1,5.9c-7.6,0-9.6-2.5-9.6-5.1c0-1.9,0.8-3.5,3.9-4.6v-0.1
	c-1.6-0.3-2.9-1-2.9-2.8c0-1.8,1.7-3.3,3.3-3.7c-2-1.3-3.2-3.4-3.2-5.7c0-4.8,3.4-7.8,8.8-7.8c2.1,0,3.7,0.6,5.1,1.5
	c1.3-1.3,2.9-1.9,4.6-1.9V10z M186.2,17.5c-0.5-4.5-2.5-7.3-6.4-7.4c-4.5,0-6.4,4.5-6.5,7.4H186.2z M173.3,19.5
	c0,4.9,2.1,9.2,7.1,9.2c2.8,0,4.2-1,6.5-4.4l2.1,1.1c-2.4,3.8-4.5,5.3-8.8,5.3c-5.8,0-9.4-3.6-9.4-11.3c0-6.7,3.5-11.3,9.1-11.3
	c6,0,8.8,4.6,8.8,11.4H173.3z M192.4,25c2.1,2.9,4,3.7,6.8,3.7c2.8,0,4.9-1.8,4.9-4.1c0-6.3-13-2.8-13-10.5c0-4.1,3.3-5.9,7-5.9
	c3.7,0,6,1.4,7.6,3.9l-2,1.3c-1.5-2-3.1-3.3-5.7-3.3c-2.5,0-4.4,1.2-4.4,3.8c0,5.3,13,2.2,13,10.6c0,3.9-3.7,6.1-7.6,6.1
	c-3.4,0-6.5-1.3-8.5-4.4L192.4,25z M9.1,12.4c-2.2,0-3.7,1.5-3.7,3.5c0,1.9,1.5,3.5,3.7,3.5c1.9,0,3.5-1.5,3.5-3.5
	C12.6,13.9,11.1,12.4,9.1,12.4L9.1,12.4z M4.6,32.2c0,1.6,1.4,2.4,5.6,2.4c3.2,0,4.3-1.6,4.3-2.4c0-1-1.5-2.4-6.4-2.4
	C5.4,29.8,4.6,31.3,4.6,32.2L4.6,32.2z M19.3,12.1c-1.2,0-2.5,0-3.3,0.5c0.6,0.9,1.1,2.1,1.1,3.7c0,4-2.7,6.8-8,6.8
	c-2.2,0-3.9,0.1-3.9,1.3c0,3.4,13.9-1.2,13.9,7.2c0,3-3,6.3-9.8,6.3c-5.7,0-9.4-1.7-9.4-5c0-2.6,2-3.9,3.8-3.9v-0.1
	c-1-0.6-3.1-1.1-3.1-3.4c0-2,2.4-3.6,3.3-3.9c-1.7-1.4-3.1-3-3.1-5.6c0-3.7,2.8-7.4,8.3-7.4c1.8,0,3.9,0.7,5.2,1.9
	c1-1.3,2.6-1.9,5-1.9V12.1z M33,17c-0.1-2.9-1.6-4.6-4.1-4.6c-2.4,0-4,1.7-4.1,4.6H33z M24.9,20.4c0.1,4.4,2,6.1,4.4,6.1
	s3.5-1.1,4.7-2.5l3.7,2.3c-1.9,3-4.8,4.3-8.9,4.3c-5.5,0-8.9-4.3-8.9-11s3.5-11,9.2-11c5.5,0,8.6,4.6,8.6,9.7v2.1H24.9z M68.5,33.6
	c0.8,0.2,1.4,0.2,2.1,0.2c1.7,0,2.7-0.5,3.3-1.7c0.5-1,0.8-1.6,0.8-2.5c0-0.8-0.4-1.7-0.6-2.5L68.5,9h5.1l3.5,13h0.1l3.6-13h5
	l-6.7,21.2c-2.2,6.1-4,7.7-8.2,7.7c-1.2,0-1.8-0.1-2.4-0.2V33.6z M41.8,9.1V2.6h5.5v6.5h4.6v4.1h-4.6v11.9c0,1.1,0.6,1.5,2,1.5
	c0.8,0,1.7-0.2,2.5-0.4v4.1c-1.5,0.2-2.9,0.3-4.4,0.3c-4.1,0-5.7-1.9-5.7-4.9V13.2h-3.2V9.1H41.8z M56.3,9.1V2.6h5.5v6.5h4.6v4.1
	h-4.6v11.9c0,1.1,0.6,1.5,2,1.5c0.8,0,1.7-0.2,2.5-0.4v4.1c-1.5,0.2-2.9,0.3-4.4,0.3c-4.1,0-5.7-1.9-5.7-4.9V13.2h-3.2V9.1H56.3z"/>
</svg>
