<?xml version="1.0" encoding="utf-8"?>
<!-- Generator: Adobe Illustrator 19.1.0, SVG Export Plug-In . SVG Version: 6.00 Build 0)  -->
<!DOCTYPE svg PUBLIC "-//W3C//DTD SVG 1.1//EN" "http://www.w3.org/Graphics/SVG/1.1/DTD/svg11.dtd">
<svg
	version="1.1"
	id="Layer_1"
	xmlns="http://www.w3.org/2000/svg"
	xmlns:xlink="http://www.w3.org/1999/xlink"
	x="0px"
	y="0px"
	width="184.8px"
	height="45.1px"
	viewBox="-507 218.9 184.8 45.1"
	style="enable-background:new -507 218.9 184.8 45.1;"
	xml:space="preserve">
	<polygon points="-485.1,242 -498.3,219.6 -507,219.6 -507,263.6 -497.7,263.6 -497.7,239.2 -488.3,254.4 -481.8,254.4 -473.1,239.4 -473.1,263.6 -463.8,263.6 -463.8,219.6 -472.6,219.6 	"/>
	<polygon points="-322.2,228.2 -322.2,219.5 -351.3,219.5 -351.3,263.6 -322.2,263.6 -322.2,254.9 -342,254.9 -342,245.7 -324,245.7 -324,237.1 -342,237.1 -342,228.2 	"/>
	<path d="M-377.3,247l3.4,3.5c3.7,3.7,5.4,5,14.2,5v-7.7c-6.1,0-7.8-1.8-8.8-2.7l-3.6-3.4L-377.3,247z"/>
	<path class="accent" d="M-387.8,236.1l-3.5-3.6c-3.7-3.7-5.4-5-14.2-5v7.7c6.1,0,7.8,1.8,8.8,2.7l3.5,3.6L-387.8,236.1z"/>
	<path class="accent" d="M-359.6,235.2v-7.6c-8.8,0-10.5,1.3-14.2,5l-8.8,8.9l-8.8,9c-3.7,3.7-5.4,5-14.2,5v7.5c5.3,0,8.8-0.4,11.6-1.5 c3.1-1.2,5.5-3.1,8-5.6l3.4-3.4l3.4,3.4c2.5,2.5,4.9,4.5,8,5.6c2.8,1.1,6.3,1.5,11.6,1.5v-7.5c-8.8,0-10.5-1.3-14.2-5l-3.5-3.5 l8.8-9C-367.5,237-365.7,235.2-359.6,235.2"/>
	<path d="M-371.1,221.7c-3.1,1.2-5.5,3.1-8,5.6l-3.5,3.5l-3.5-3.5c-2.5-2.5-4.9-4.5-8-5.6c-2.8-1.1-6.2-1.5-11.5-1.5 v7.4c8.8,0,10.5,1.3,14.2,5l3.5,3.6l-8.9,9c-0.9,0.9-2.7,2.7-8.8,2.7v7.7c8.8,0,10.5-1.3,14.2-5l17.5-17.9c3.7-3.7,5.4-5,14.2-5 v-7.6C-365,220.1-368.3,220.6-371.1,221.7"/>
	<path d="M-434.9,263.8c-12.3,0-22.4-10-22.4-22.4c0-12.3,10-22.4,22.4-22.4c12.3,0,22.4,10,22.4,22.4 S-422.6,263.8-434.9,263.8 M-434.9,228.4c-7.2,0-13.1,5.9-13.1,13.1c0,7.2,5.9,13.1,13.1,13.1c7.2,0,13.1-5.9,13.1-13.1 C-421.8,234.3-427.7,228.4-434.9,228.4"/>
</svg>
