<?xml version="1.0" encoding="utf-8"?>
<!-- Generator: Adobe Illustrator 22.1.0, SVG Export Plug-In . SVG Version: 6.00 Build 0)  -->
<svg version="1.1" id="Artwork" xmlns="http://www.w3.org/2000/svg" xmlns:xlink="http://www.w3.org/1999/xlink" x="0px" y="0px"
	 viewBox="0 0 527.6 112.3" style="enable-background:new 0 0 527.6 112.3;" xml:space="preserve">
<style type="text/css">
	.Arched_x0020_Green{fill:url(#SVGID_1_);stroke:#FFFFFF;stroke-width:0.25;stroke-miterlimit:1;}
</style>
<linearGradient id="SVGID_1_" gradientUnits="userSpaceOnUse" x1="-171.4265" y1="287.1889" x2="-170.7194" y2="286.4818">
	<stop  offset="0" style="stop-color:#20AC4B"/>
	<stop  offset="0.9831" style="stop-color:#19361A"/>
</linearGradient>
<path d="M18.5,111.9c-0.4-1.8-0.8-3.4-1.2-4.9l-2.2-7.4c-0.2-0.7-0.4-1.8-0.5-2.5c-0.1-0.4-0.3-0.6-0.6-0.6c-0.2,0-0.5,0.2-0.6,0.6
	c-0.1,0.6-0.3,1.4-0.4,2l-0.1,0.5l-2.2,7.4c-0.4,1.4-0.8,3.1-1.1,4.9l-3.8,0c-0.3-1.7-0.8-3.5-1.4-5.6L0,90.7l2.9,0.1L6.1,102
	c0.4,1.6,0.8,3.7,0.9,5.3c0,0.3,0.3,0.6,0.6,0.6c0.3,0,0.5-0.2,0.6-0.6c0.2-1.6,0.6-3.6,1.1-5.3l3.4-11.3l2.4,0l3.5,11.3
	c0.5,1.8,0.9,3.9,1.1,5.3c0,0.4,0.3,0.6,0.6,0.6c0.3,0,0.5-0.2,0.6-0.6c0.1-1.5,0.5-3.6,1-5.3L25,90.7l3,0l-4.3,15.6
	c-0.6,2.1-1,4-1.3,5.6l0,0H18.5z M42.6,111.9l0-21.2h-2.9l0,21.2H42.6z M69.6,111.9v-8.4c0-0.2,0.2-0.3,0.3-0.3h8.9v-2.5h-8.9
	c-0.2,0-0.3-0.2-0.3-0.3v-6.8c0-0.2,0.2-0.3,0.3-0.3l10.4,0l0.7-2.4H66.7v21.2H69.6z M95.2,111.9l0-21.2h-2.9v21.2H95.2z
	 M139.2,111.9L139.2,111.9c0.7-2.5,1.5-5.1,2.4-7.6l5.5-13.7l-3.1,0.1l-4.4,11.2c-0.7,1.8-1.3,3.9-1.6,5.5c0,0.3-0.3,0.6-0.6,0.6
	c-0.3,0-0.5-0.2-0.6-0.5c-0.3-1.6-0.9-3.7-1.6-5.5l-4.5-11.3l-3-0.1l5.4,13.7c0.9,2.3,1.7,4.8,2.4,7.6H139.2z M164.9,111.9l0-21.2
	h-2.9l0,21.2H164.9z M188.7,111.9c5.7,0,9.2-4.1,9.2-10.6c0-6.6-3.5-10.6-9.2-10.6h-7.3v21.2H188.7z M188.7,93.2
	c3.9,0,6.3,3,6.3,8.1c0,5.1-2.3,8.1-6.3,8.1h-4.1c-0.2,0-0.3-0.2-0.3-0.3V93.5c0-0.2,0.2-0.3,0.3-0.3H188.7z M228,111.9l0-2.5h-11.2
	c-0.2,0-0.3-0.2-0.3-0.3v-6.5c0-0.2,0.2-0.3,0.3-0.3h8.7l0-2.4h-8.7c-0.2,0-0.3-0.2-0.3-0.3v-5.9c0-0.2,0.2-0.3,0.3-0.3l10.5,0
	l0.7-2.4h-14.4v21.2H228z M260.7,101.3c0-6.7-3.5-10.9-9.2-10.9c-5.7,0-9.2,4.2-9.2,10.9c0,6.8,3.5,11,9.2,11
	C257.2,112.3,260.7,108.1,260.7,101.3z M257.8,101.3c0,5.3-2.3,8.4-6.2,8.4c-3.9,0-6.3-3.1-6.3-8.4c0-5.2,2.3-8.4,6.3-8.4
	C255.4,92.9,257.8,96.1,257.8,101.3z M301.1,111.9c5.7,0,9.2-4.1,9.2-10.6c0-6.6-3.5-10.6-9.2-10.6h-7.3v21.2H301.1z M301.1,93.2
	c3.9,0,6.3,3,6.3,8.1c0,5.1-2.3,8.1-6.3,8.1H297c-0.2,0-0.3-0.2-0.3-0.3V93.5c0-0.2,0.2-0.3,0.3-0.3H301.1z M343.6,101.3
	c0-6.7-3.5-10.9-9.2-10.9c-5.7,0-9.2,4.2-9.2,10.9c0,6.8,3.5,11,9.2,11C340,112.3,343.6,108.1,343.6,101.3z M340.6,101.3
	c0,5.3-2.3,8.4-6.2,8.4c-3.9,0-6.3-3.1-6.3-8.4c0-5.2,2.3-8.4,6.3-8.4C338.3,92.9,340.6,96.1,340.6,101.3z M376.7,101.3
	c0-6.7-3.5-10.9-9.2-10.9c-5.7,0-9.2,4.2-9.2,10.9c0,6.8,3.5,11,9.2,11C373.2,112.3,376.7,108.1,376.7,101.3z M373.8,101.3
	c0,5.3-2.3,8.4-6.2,8.4c-3.9,0-6.3-3.1-6.3-8.4c0-5.2,2.3-8.4,6.3-8.4C371.5,92.9,373.8,96.1,373.8,101.3z M395.2,111.9v-8.2
	c0-0.2,0.2-0.3,0.3-0.3h2.3c3.6,0,5.1,1.8,6.2,4.5l1.8,4.1h3l-2.2-5.2c-0.5-1.2-1.4-2.7-2.9-3.5c-0.1-0.1-0.5-0.3-0.4-0.6
	c0-0.3,0.4-0.5,0.5-0.6c2.5-0.9,3.9-2.9,3.9-5.3c0-3.7-2.6-6-6.9-6h-8.5l0,21.2H395.2z M400.8,93.2c2.4,0,4,1.5,4,3.7
	c0,2.6-1.9,4-5.3,4h-4c-0.2,0-0.3-0.2-0.3-0.3v-7.1c0-0.2,0.2-0.3,0.3-0.3H400.8z M433.2,111.9c4.4,0,6.9-2,6.9-5.6
	c0-3.5-2.6-4.6-3.4-4.8c-0.5-0.1-0.6-0.5-0.6-0.6c0-0.3,0.2-0.5,0.5-0.6c0.6-0.3,2.7-1.3,2.7-4.4c0-3.3-2.5-5.3-6.7-5.3h-8.4l0,21.2
	H433.2z M432.1,102.3c4.2,0,5.1,2.1,5.1,3.8c0,2.1-1.5,3.4-4,3.4h-5.7c-0.2,0-0.3-0.2-0.3-0.3v-6.5c0-0.2,0.2-0.3,0.3-0.3H432.1z
	 M432.7,93.2c2.3,0,3.8,1.2,3.8,3.1c0,2.2-1.7,3.5-4.7,3.5h-4.3c-0.2,0-0.3-0.2-0.3-0.3v-5.9c0-0.2,0.2-0.3,0.3-0.3H432.7z
	 M470.1,111.9l0-2.5h-11.2c-0.2,0-0.3-0.2-0.3-0.3v-6.5c0-0.2,0.2-0.3,0.3-0.3h8.7l0-2.4h-8.7c-0.2,0-0.3-0.2-0.3-0.3v-5.9
	c0-0.2,0.2-0.3,0.3-0.3l10.5,0l0.7-2.4h-14.4l0,21.2H470.1z M498.8,111.9l0-2.5h-9.9c-0.2,0-0.3-0.2-0.3-0.3V90.7h-2.9v21.2H498.8z
	 M527.6,111.9l0-2.5h-9.9c-0.2,0-0.3-0.2-0.3-0.3V90.7h-2.9l0,21.2H527.6z M58.7,103.1c0.2,0,0.3-0.1,0.3-0.3v-2.1
	c0-0.2-0.1-0.3-0.3-0.3h-7.8c-0.2,0-0.3,0.1-0.3,0.3v2.1c0,0.2,0.1,0.3,0.3,0.3H58.7z M55.5,64.6c6.1,0,10.3-1,12.5-3
	c2.2-2,3.3-5.9,3.3-11.9v-9.1c0-6-1.1-9.9-3.3-11.9c-2.2-2-6.4-3-12.6-3h-39c-1.5,0-2.8-1.3-2.8-2.8V13c0-1.5,1.3-2.8,2.8-2.8h40.7
	c1.5,0,2.8,1.3,2.8,2.8v1.8c0,0.5,0.3,0.9,0.7,1.1c0.1,0.1,0.3,0.1,0.5,0.1c0.3,0,0.6-0.1,0.8-0.3l8.8-8.4C71.2,7,71.3,6.5,71.1,6
	c-0.5-1.3-1.3-2.3-2.2-3.1C66.6,1,62.5,0,56.6,0H17.4C11.3,0,7.1,1,4.9,3C2.8,5,1.7,9,1.7,14.9v7.3c0,5.9,1.1,9.9,3.2,11.9
	c2.2,2,6.4,3,12.5,3h38.9c1.5,0,2.8,1.3,2.8,2.8v10.7c0,1.5-1.3,2.8-2.8,2.8H14.1c-1.5,0-2.8-1.3-2.8-2.8v-2.2
	c0-0.5-0.3-0.9-0.7-1.1c-0.2-0.1-0.3-0.1-0.5-0.1c-0.3,0-0.6,0.1-0.8,0.3l-8.9,8.1c-0.3,0.3-0.4,0.7-0.4,1c0.2,1.2,0.7,3.4,2.3,4.8
	c2.2,2,6.4,3,12.5,3H55.5z M148.6,64.6c0.5,0,0.9-0.3,1.1-0.8c0.2-0.5,0-1-0.4-1.3l-35.7-29.9c-0.7-0.5-1.2-1.4-1.2-2.3
	c0-1,0.5-1.8,1.1-2.2L141.5,2c0.4-0.3,0.5-0.8,0.3-1.3c-0.2-0.4-0.6-0.7-1.1-0.7h-14.2c-0.3,0-0.6,0.1-0.8,0.3l-25.4,24.3
	c-0.5,0.4-1.1,0.6-1.7,0.6c-0.4,0-0.9-0.1-1.2-0.3c-1-0.5-1.5-1.4-1.5-2.5V1.2c0-0.7-0.5-1.2-1.2-1.2H82.8c-0.6,0-1.2,0.5-1.2,1.2
	v62.2c0,0.7,0.5,1.2,1.2,1.2h11.9c0.6,0,1.2-0.5,1.2-1.2V40.6c0-1.1,0.6-2,1.5-2.5c0.4-0.2,0.8-0.3,1.3-0.3c0.6,0,1.2,0.2,1.7,0.6
	l31.4,26c0.2,0.2,0.5,0.3,0.8,0.3H148.6z M191.8,64.6c0.6,0,1.2-0.5,1.2-1.2V36.2c0-0.7,0.3-1.4,0.7-1.9l27.9-32.4
	c0.3-0.3,0.4-0.8,0.2-1.3c-0.2-0.4-0.6-0.7-1.1-0.7h-15.6c-0.4,0-0.7,0.2-0.9,0.5l-16.2,21.3c-0.5,0.6-1.3,0.9-2.1,0.9
	c-0.8,0-1.6-0.4-2.2-1L167.5,0.5c-0.2-0.3-0.6-0.5-0.9-0.5h-15.6c-0.5,0-0.9,0.3-1.1,0.7c-0.2,0.4-0.1,0.9,0.2,1.3l28,32.7
	c0.5,0.5,0.8,1.2,0.8,1.9v26.8c0,0.7,0.5,1.2,1.2,1.2H191.8z M284.1,64.6c12.5,0,18.8-4.1,18.8-12.3v-8.4c0-4.9-1.7-8.2-5.2-10.2
	c-0.9-0.5-1.4-1.4-1.4-2.4c0-1,0.6-1.9,1.4-2.4c3.2-1.7,4.7-4.6,4.7-8.7v-8C302.3,4,297.7,0,288.1,0h-54.6c-0.6,0-1.2,0.5-1.2,1.2
	v62.2c0,0.7,0.5,1.2,1.2,1.2H284.1z M281.8,36c2.7,0,4.5,0.3,5.7,1c1.5,1,2.3,2.8,2.3,5.5v5c0,2.7-0.8,4.5-2.3,5.5
	c-1.1,0.7-3,1-5.7,1H249c-1.5,0-2.8-1.3-2.8-2.8V38.8c0-1.5,1.3-2.8,2.8-2.8H281.8z M281.8,9.5c5,0,7.6,1.8,7.6,5.3v6.3
	c0,3.5-2.6,5.3-7.6,5.3H249c-1.5,0-2.8-1.3-2.8-2.8V12.3c0-1.5,1.3-2.8,2.8-2.8H281.8z M378.1,64.6c0.6,0,1.2-0.5,1.2-1.2v-8.8
	c0-0.7-0.5-1.2-1.2-1.2h-47.7c-1.5,0-2.8-1.3-2.8-2.8v-12c0-1.5,1.3-2.8,2.8-2.8h26.4c0.6,0,1.2-0.5,1.2-1.2v-7.6
	c0-0.7-0.5-1.2-1.2-1.2h-26.4c-1.5,0-2.8-1.3-2.8-2.8V12.8c0-1.5,1.3-2.8,2.8-2.8h38.7c0.3,0,0.6-0.1,0.8-0.3l8-7.6
	c0.3-0.3,0.5-0.8,0.3-1.3C378,0.3,377.6,0,377.1,0h-62.4c-0.6,0-1.2,0.5-1.2,1.2v62.2c0,0.7,0.5,1.2,1.2,1.2H378.1z M452.1,64.6
	c0.6,0,1.2-0.5,1.2-1.2v-8.8c0-0.7-0.5-1.2-1.2-1.2h-45.4c-1.5,0-2.8-1.3-2.8-2.8V1.2c0-0.7-0.5-1.2-1.2-1.2H391
	c-0.6,0-1.2,0.5-1.2,1.2v62.2c0,0.7,0.5,1.2,1.2,1.2H452.1z M526.4,64.6c0.6,0,1.2-0.5,1.2-1.2v-8.8c0-0.7-0.5-1.2-1.2-1.2H481
	c-1.5,0-2.8-1.3-2.8-2.8V1.2c0-0.7-0.5-1.2-1.2-1.2h-11.7c-0.6,0-1.2,0.5-1.2,1.2v62.2c0,0.7,0.5,1.2,1.2,1.2H526.4z M515.8,4.7
	c-0.1,0-0.2,0.1-0.2,0.2V13c0,0.1,0.1,0.2,0.2,0.2h1.6c0.1,0,0.2-0.1,0.2-0.2v-2.8h0.3c1.3,0,1.7,0.6,2.1,1.6l0.5,1.3
	c0,0.1,0.1,0.1,0.2,0.1h1.7c0.1,0,0.2-0.1,0.1-0.2l-0.8-2c-0.2-0.5-0.5-1-1-1.3c-0.1-0.1-0.2-0.1,0-0.2c0.7-0.3,1.4-1,1.4-2.1
	c0-1.6-1.1-2.6-3-2.6H515.8z M517.6,8.5V6.4h1.5c0.6,0,1.1,0.4,1.1,1c0,0.7-0.4,1-1.3,1H517.6z M527.6,8.9c0-4.9-4-8.9-8.9-8.9
	c-4.9,0-8.9,4-8.9,8.9s4,8.9,8.9,8.9C523.6,17.8,527.6,13.8,527.6,8.9z M525.8,8.9c0,4-3.2,7.2-7.2,7.2c-4,0-7.2-3.2-7.2-7.2
	s3.2-7.2,7.2-7.2C522.6,1.7,525.8,5,525.8,8.9z"/>
</svg>
