<?xml version="1.0" encoding="utf-8"?>
<!-- Generator: Adobe Illustrator 22.1.0, SVG Export Plug-In . SVG Version: 6.00 Build 0)  -->
<svg version="1.1" id="Layer_1" xmlns="http://www.w3.org/2000/svg" xmlns:xlink="http://www.w3.org/1999/xlink" x="0px" y="0px"
	 viewBox="0 0 2426.5 725.6" style="enable-background:new 0 0 2426.5 725.6;" xml:space="preserve">
<path d="M2391.4,161.5H1373.5L702.1,0h-0.6l-0.6,0.6L0,192.7v79.5L701.5,76.7l673.2,160.7l1016.7-1.2V161.5z M1360.4,641.2h28.8
	l-13.2-32.4L1360.4,641.2L1360.4,641.2z M1108.4,601.7V616h27.4c6,0,20.2,2,20.6-6c0.4-9.1-10-8.4-20.8-8.4H1108.4z M49.8,520v202
	h2289.9V518.8L49.8,520L49.8,520z M295.7,671.1H237v-94.7h58.8V671.1z M534.2,671.1h-57.6l-57.5-45.5l-0.1,45.5h-53.8v-94.7h54
	l59.9,51.6v-51.6h55.2V671.1z M678.2,670.1c-63.5,0-73.1-12-82.7-30h55.1c9.6,6,9.6,6,26.4,6c10.8,0,18-2.4,18-6
	c0-9.6-97.1-3.6-97.1-39.6c0-19.2,37.2-28.8,75.5-28.8c52.8,0,65.9,10.8,75.5,30h-50.3c-20.4-7.2-6.3-5.4-21.6-7.2
	c-8.5-1-20.4,1.2-20.4,3.6c0,14.4,97.1,6,97.1,40.8C753.7,660.5,717.7,670.1,678.2,670.1L678.2,670.1z M979,613.5
	c0,34.8-3.6,57.6-83.9,57.6c-70.7,0-86.3-18-86.3-52.7v-42h59.9v42c0,21.6,4.8,27.6,26.4,27.6s25.2-6,25.2-28.8v-40.8H979L979,613.5
	L979,613.5z M1159,673.6l-3.6-14.4c-2.4-14.4-6-18-24-18h-22.8v32.4h-57.5v-94.7h95.9c39.6,0,65.9,7.2,65.9,26.4
	c0,9.6-8.4,15.6-22.8,22.8c21.6,6,22.8,9.6,25.2,45.6L1159,673.6L1159,673.6z M1410.7,673.6l-7.2-12h-53.9l-8.4,12h-58.7l65.9-94.7
	h58.7l61.2,94.7H1410.7z M1703.2,673.6h-56.4l-57.6-49.2v49.2h-54v-94.7h54l60,46.7v-46.7h54L1703.2,673.6L1703.2,673.6
	L1703.2,673.6z M1859,674.8c-45.5,0-93.5-16.8-93.5-50.4c0-32.4,45.5-49.2,93.5-49.2c61.2,0,73.1,15.6,82.7,40.8h-54
	c-9.6-12-14.4-15.6-28.8-15.6c-18,0-32.4,10.8-32.4,24c0,15.6,12,24,28.8,24c14.4,0,24-3.6,38.4-13.2h50.4
	C1934.5,660.4,1916.5,674.8,1859,674.8L1859,674.8z M2150.3,599.2H2064v12h71.9V634H2064v13.2h86.3v25.1h-145.1v-95.9h145.1V599.2z
	 M1759.5,319v177.5h49.2v-77.9l28.8,77.9h36l37.2-86.3v86.3h43.2V319h-68.4l-33.6,76.7l-24-76.7H1759.5L1759.5,319z M237,318.9
	v176.2h45.6v-58.8l22.8,58.8h38.4l27.6-86.3l0.3,86.3h50.1V318.9h-64.7l-31.2,76.7l-24-76.7H237L237,318.9z M1115.6,319h-63.5
	l-56.4,177.5h48l12.5-32.4h53.5l8.4,32.4h51.6L1115.6,319L1115.6,319z M1070,423.4l13.2-32.4l12,32.4H1070z M1681.5,319h-60
	L1570,496.4h50.4l9.6-32.4h46.8l13.2,32.4h49.2L1681.5,319L1681.5,319z M1642.1,423.4l10.8-27.6l10.8,27.6H1642.1z M156.5,318.9h-54
	L49.8,495.2h44.4l9.6-27.6h49.8l10.1,27.6h47.9L156.5,318.9L156.5,318.9z M117.1,422.1l12-31.2l12,31.2H117.1z M2181.4,317.9
	l57.6,98.3v77.9h49.2V415l51.5-97.1H2293l-32.5,53.6l-31.1-53.6L2181.4,317.9L2181.4,317.9z M1194.6,319v177.5h46.8v-80.3l39.6,80.3
	h60V319h-48v88.7l-40.8-88.7H1194.6L1194.6,319z M960.9,362.1l24-32.4c-16.8-13.2-30-19.2-54-19.2c-43.2,0-81.5,32.4-81.5,92.3
	c0,57.6,38.4,92.3,81.5,92.3c28.8,0,40.8-9.6,55.1-26.4l-21.6-27.6c-13.2,7.2-21.6,10.8-32.4,10.8c-20.4,0-36-18-36-45.6
	c0-28.8,18-50.3,40.8-50.3C944.1,356.1,950.1,357.3,960.9,362.1L960.9,362.1z M751.4,376.5c0-52.7-34.8-57.5-73.1-57.5h-61.1v176.2
	h51.6v-56.4h12l21.6,56.4H749l-20.4-68.4C745.4,407.6,751.4,396.8,751.4,376.5L751.4,376.5z M668.5,394.4v-32.4
	c19.2,0,33.6,2.5,33.6,14.5C702,395.7,681.7,394.4,668.5,394.4L668.5,394.4z M471.8,318.9v176.2h112.7v-48h-56.4v-16.8h43.2v-52.8
	h-43.2v-15.6h56.4v-43.2H471.8z M1465.8,496.4h49.2v-67.2h52.7v-39.6H1515v-28.8h57.5v-42h-106.7V496.4L1465.8,496.4z M2092.7,317.9
	v176.2h107.9v-44.4h-56.4V317.9H2092.7z M2000.5,317.9v176.2h45.5V317.9H2000.5z M788.4,318.9v176.2h44.4V318.9H788.4z
	 M2395.9,664.2c-16.7,0-30.8,13-30.8,30.6c0,17.8,14.1,30.8,30.8,30.8c16.8,0.1,30.5-13.5,30.6-30.3c0-0.2,0-0.3,0-0.5
	c0.1-16.8-13.4-30.5-30.2-30.6C2396.1,664.2,2396,664.2,2395.9,664.2z M2395.9,720.5c-13.9,0-24.7-10.9-24.7-25.7
	c0-14.5,10.8-25.5,24.7-25.5c13.7,0,24.5,11,24.5,25.5C2420.4,709.6,2409.6,720.5,2395.9,720.5z M2400.8,697c5.1-0.6,9-3.4,9-9.8
	c0-7-4.1-10.1-12.3-10.1h-13.3v35.4h5.3v-15.4h6.1l9.2,15.4h5.9L2400.8,697z M2389.4,692.7v-11h7.2c3.7,0,7.6,0.8,7.6,5.2
	c0,5.4-4,5.7-8.5,5.7L2389.4,692.7L2389.4,692.7L2389.4,692.7z"/>
</svg>
