<?xml version="1.0" encoding="utf-8"?>
<!-- Generator: Adobe Illustrator 22.1.0, SVG Export Plug-In . SVG Version: 6.00 Build 0)  -->
<svg version="1.1"
	 id="svg5029" inkscape:version="0.48.5 r10040" sodipodi:docname="A.svg" xmlns:cc="http://creativecommons.org/ns#" xmlns:dc="http://purl.org/dc/elements/1.1/" xmlns:inkscape="http://www.inkscape.org/namespaces/inkscape" xmlns:rdf="http://www.w3.org/1999/02/22-rdf-syntax-ns#" xmlns:sodipodi="http://sodipodi.sourceforge.net/DTD/sodipodi-0.dtd" xmlns:svg="http://www.w3.org/2000/svg"
	 xmlns="http://www.w3.org/2000/svg" xmlns:xlink="http://www.w3.org/1999/xlink" x="0px" y="0px" viewBox="0 0 769.6 740.6"
	 style="enable-background:new 0 0 769.6 740.6;" xml:space="preserve">
<style type="text/css">
	.st0{fill:none;stroke:#000000;stroke-width:0.313;}
</style>
<path id="separator" inkscape:connector-curvature="0" class="st0" d="M480.4,595.8H757 M13.4,588.8h245.5"/>
<path id="paw" d="M311.6,524.2c0.3-1,0.7-1.9,1-2.7c4.8-12.9,5.5-25.6,13.4-37.4c8.4-12.4,23.9-22.4,39.4-19.1
	c10,2.1,27.5,9.6,34.2,17.2c3.7,4.2,6.3,10.3,10.3,14c8.6,7.9,21.2,10,31.5,14.6c10.8,4.9,21.5,12.1,29.4,20.8
	c17.3,19.4,3.5,34.6-14.1,47.3c-14.9,10.7-28,19.4-45.3,25.9c-20.1,7.5-41.3,12.6-62.8,13.1c-23.9,0.6-63.6,3.3-63.1-30
	c0,0,0.4-26.4,15.2-39.4C305.8,544.1,309.1,531.8,311.6,524.2 M207.8,447.4c0,0,13.8-20.5,38.2-3c0,0,12.3,16,18.5,17.2
	c0,0,13.9,7.8,16.5,16.8c0,0,14.2,26.2,3,38.2c0,0-18.4,24.7-48.2,12.6c0,0-18.2-5.6-24.6-21.4c-1.5-3.7-4.7-6.8-6.1-10.8
	c-2.4-7-1.6-14.1-1.9-21.3C202.5,465,202.6,457.4,207.8,447.4 M215.5,416c0,0,1.5-19.4,5.2-23c0,0,11.3,22.6,7.4,26.2
	C228.1,419.3,224.2,410.5,215.5,416 M267.3,313.3c1.4-1.1,3-2.1,4.9-2.9c9.8-4.2,22.9-2.2,28.9,7.2c0,0,14.3,17.7,20.4,27.4
	c11.2,18,14.7,40.2,10.5,60.8c-1.7,8.2-4,18.2-10.6,23.9c-8.5,7.2-19.1,4.1-29.1,5.6c0,0-21.6,3.2-32.1-13.4
	c-13.5-21.2-18.4-46-14.9-70.8c0.9-6.6,6.5-12,9.2-17.9C257.8,325.9,261,318.2,267.3,313.3 M267.4,292c0,0-0.4-17.5,8.8-29.9
	c0,0,10.7,19.5,10.3,28.4c0,0-3,1-4.7-2.2c-1.4-2.6-4.7-3.4-7.3-2.2C272.1,287.2,270.3,293.5,267.4,292 M473.8,396.8
	c-11.8-8.2-27.1-6.9-38.7,10.2c0,0-6.4,20.6-12.2,24.1c-15.7,9.5-16,53.9,0.9,62.3c40.1,20,78.2-17.2,69.8-57.9
	C490.7,421.7,486,405.3,473.8,396.8 M459.6,367.1c0,0-4.3-17-13.7-21.1c0,0-2.4,21.3,2.3,29C448.2,375.1,448.5,361.7,459.6,367.1
	 M352.2,289.1c-2.1-0.1-4.4,0.3-6.6,1.2c-25.4,10.1-14.9,50.4-8.4,69.1c5.5,15.5,13.3,30.2,22.9,43.5c5.9,5.8,17.7,11.3,26.1,10.9
	c17.2-0.8,35.3-23.6,33.3-40.3c-2.9-24.6-13.5-45.8-29.6-64.5c-3.8-4.5-11.5-6.2-16.4-9.6C367.2,294.8,360.2,289.2,352.2,289.1
	 M338.5,268.5c0,0-9.5-13.1-26.1-13.5c0,0,0.8,20.3,6.9,24.4c0,0,3-0.7,4.1-3.8c0,0-1.4-8.8,8.8-6.9
	C332.2,268.8,340,273.3,338.5,268.5"/>
<path id="text" d="M634.1,493.2c-0.3,1.6-0.8,2.6-0.8,4.6c0,1.9,1,3.5,1.3,5.5c0.2,2.3,0,3.9,0,6.2c0,1.6-0.3,2.9-0.3,4.5
	c-0.5,6.8,2.8,12.1,0,17.9c-0.8,1.3-1.3,2.3-2.4,3.3c-3.6,3.6-7.5,1-12,1c-5.5,0.3-8.8,1-14.3,0.7c-1.6-0.3-2.6-0.7-4.2-0.7
	c-3.4,0-5.2,0.7-8.3,1c-5.7,0.3-9.4,0-15.1,0c-8.1,0-12.7,1-20.8,0c-2.1-0.3-3.6-0.7-5.7-1.3c-2.1-0.3-3.4-1.3-5.2-1.6
	c-2.1-0.3-3.6,0-5.7,0.3c-2.6,0.6-4.4,1.6-7,2.3c-3.4,0.3-5.7-0.3-9.3,0c-2.9,0-4.7,0.7-7.5,0.7c-2.6,0-4.4,0.3-7,0
	c-2.6-0.3-4.7,0.3-6.7-1.6c-1.3-1-2.1-1.9-2.4-3.5c-0.2-2.3,1-3.6,2.4-5.2c1.3-2.3,3.1-2.9,5.2-4.5c2.1-2,3.9-2.6,5.7-4.9
	c1.8-2.3,3.4-3.9,4.1-6.8c0.8-2.9,0.5-4.9,0.8-7.8c0.2-4.9,0-7.8,0.2-12.7c0-2.3-0.2-4.2,0.3-6.5c0.5-2,2.3-2.9,2.6-4.9
	c0.8-3,0-5.2-0.5-7.8c-0.5-3.6-1.6-5.5-2.4-8.8c-0.8-2.9-1.6-4.6-1.8-7.5c-0.5-2.9-0.3-4.9,0-7.8c0.3-3.9,1.3-6.2,1.8-9.7
	c0.5-3.3,0.3-5.5,0.8-8.5c0.3-2.6,0.8-4.2,0.8-6.5c0-1.6,0.3-2.9-0.2-4.2c-0.3-0.7-0.8-1-1.3-1.6c-1.3-2.3-0.8-4.5-1-7.8
	c0-2.9,0.3-4.9,0.8-7.8c0.7-3.9,2.6-5.8,3.1-9.8c0.8-4.9,0-7.8-0.3-12.7c0-3.3-0.2-5.2-0.2-8.4c-0.3-2.9-0.5-5.2-0.8-8.1v-10.7
	c0.3-1.6,0.3-2.9,0.5-4.9c0-2.3,0.5-3.9,0-5.8c-0.5-1.6-1.3-2.6-2.1-3.9c-0.8-1.9-1.3-3.5-2.3-4.9c-1.6-2.6-3.4-2.9-5.5-4.6
	c-1.6-1.3-2.9-1.9-4.2-3.5c-1.3-2-2.3-3.6-2.6-6.2c-0.3-2.3-0.5-3.9,0.5-5.8c1.6-2,3.6-1,6-1c2.3-0.3,4.1,0.3,6.5,0.7
	c2.9,0.6,4.4,1.9,7,2.6c2.6,0.3,4.2,0,6.5,0c3.6,0,5.7,0.7,9.1,0.3c4.2-0.6,6.2-3.9,10.4-4.2c2.1,0,3.6,0.7,5.7,1
	c1.8,0.3,3.1,0.7,4.9,0.7c2.6,0.3,4.2-1.6,6.5-0.7c1.6,0.7,3.4,1,3.6,2.9c0.3,1.3-0.5,2.6-1.3,3.9c-1.3,2.3-3.1,2.6-5,4.2
	c-1.8,1.3-3.1,2.3-4.4,3.9c-1.6,1.9-2.6,3.2-3.6,5.8c-1.3,2.9-1,5.2-2.1,8.4c-0.8,2.6-2.1,3.9-2.6,6.8c-0.5,2.9,0.2,5.2,0.5,8.4
	v11.1c-0.3,3.3-0.5,5.8-0.8,9.1c0,3.3,0.3,5.5-0.2,8.8c-0.5,2-1,3.6-1.6,5.5c-0.8,2.6-1.3,4.2-2.3,6.5c-0.3,0.7-0.8,1-1,1.6
	c-0.5,2.3,3.1,1.6,4.1,3.3c1,1.3,1.8,2.6,2.4,4.6c0.3,1.3,0.8,1.9,0.8,3.6c-0.3,1.3-1.3,2.3-1.8,3.5c-0.5,2.3-0.5,3.9-0.8,6.5
	c-0.5,4.9-0.8,7.8-0.8,12.6c0,5.8-1,10.1,0.8,15.6c0.5,2.6,1.8,3.9,2.6,6.2c1,4.2,1.6,6.8,1.6,11.4c0,1.9-0.3,2.9-0.3,4.9
	c-0.3,2,0.3,3.3,0,5.2c-0.5,2.3-1.6,3.6-2.1,6.2c-0.5,2.6-0.5,4.6-0.5,7.5c-0.3,4.2-1,7.5,0.5,11.1c0.8,1.6,1.8,2.6,2.6,4.2
	c0.8,1.6,1,3.6,2.1,5.2c2.1,3.6,5.5,3.6,9.1,4.9c2.6,1,4.4,1,7.3,1.6c7,1.3,11.4,2.9,18.7,1.9c1.8-0.3,3.1-1.3,4.9-1.3
	c1.6,0,2.6,0.3,3.9,0.6c3.4,0,5.7,1.6,8.8,0c2.4-1.3,3.6-3.3,5.2-5.8c1.3-2.3,2.1-4.2,2.8-6.8c0.5-1.9,0.8-3.3,1.3-4.9
	c0.5-1.3,1-1.9,1.6-3.3c1.3-2.6,0.5-5.2,2.1-7.8c1.6-2.6,3.1-4.6,5.7-4.6c2.3,0.4,4.7,1.3,5.2,4.2
	C635.5,489.9,634.4,491.3,634.1,493.2 M766.2,321.2c-0.3,1.9-0.8,3.6-1,5.5c-0.3,2.2,0,3.5-0.3,5.8c-0.2,2.6-1.3,3.9-1.6,6.2
	c-0.3,2.6,0,4.2,0.3,6.8c0.2,3,0.5,4.9,1,8.1c0.2,2.9,2.1,4.9,1.3,7.8c-0.5,2.3-1.8,3.6-3.6,4.9c-1.3,0.7-2.6,1.3-4.2,0.7
	c-1.6-0.3-2.3-2-3.4-3.6c-1.3-2-2.1-3.6-2.9-6.2c-0.5-1.9,0-3.6-0.5-5.5c-0.5-1.9-1.3-2.9-2.1-4.5c-0.8-1.9-1.8-2.9-2.9-4.5
	c-1-1.6-1-3.6-2.6-5.2c-1-0.7-1.8-1-2.9-1.6c-2.1-1-3.1-2.3-4.9-3.6c-4.4-2.9-7.5-3.9-12.5-5.2c-3.4-1-5.7-1.6-9.1-1.6
	c-2.1,0-3.4,0.3-5.2,0.3c-2.1,0-3.6-0.3-5.7,0.3c-1.3,0.7-2.1,1.3-3.4,2.3c-1,0.6-1.8,1.3-3.1,1.9c-1.3,0.7-2.6,0.7-4.2,1.6
	c-1.5,1-2.6,2.3-3.6,4.5c-1,2.3-1,4.2-1.3,6.5c-0.3,3.9,1,6.2,0.5,9.8c-0.2,1.6-0.5,2.6-1,4.2c-0.8,1.9-2.4,2.6-2.9,4.9
	c-1,2.6-0.8,4.6-0.8,7.2c0.2,3.3,1,4.9,1.6,7.8c0.5,1.9,1.3,3.3,1.3,5.2c0.2,2.3,0.2,3.6,0,5.8c0,2.6-0.8,4.5-0.5,7.2
	c0.3,2.6,1.6,3.9,1.8,6.2c0.3,1.6,0.3,2.9,0.8,4.2c1,2.3,3.4,2.3,5.5,2.6c2.4,0.3,3.9-0.3,6.2-0.3c2.4-0.3,3.9-0.3,6.3-0.7
	c2.6-0.7,4.7-0.3,7-1.6c2.1-1.3,3.1-2.9,4.7-4.9c1.3-1.9,1.8-3.3,3.1-4.9c2.1-2.9,3.1-6.5,6.3-6.5c2.3,0,4.1,1,5.5,3.6
	c1.3,2.6,0.8,4.9,0.8,8.1c0,5.5-1.3,8.5-1.8,14c-0.3,6.2-1,10.4,0,16.3c0.5,1.9,1.3,2.9,1.3,4.9s-0.8,2.6-0.8,4.6
	c-0.2,2.6,0.8,3.9,0.8,6.5c0,2.6,0.8,4.6-0.5,6.5c-0.8,1-2.1,1.6-3.4,1.6c-2.1,0-3.4-1.6-5.2-3.3c-2.4-2-3.7-3.9-5.5-6.8
	c-1.8-2.9-2.3-5.8-4.1-8.8c-2.6-3.6-5-5.8-8.6-8.1c-3.1-2-5.2-3.6-9.1-3.6c-1.8,0-3.1,0-5.2,1c-2.1,1-4.2,1.6-5.2,4.2
	c-0.8,2.3-0.3,4.2-0.3,6.5c0,4.5,0.8,7.1,0,11.4c-0.3,2-0.8,3.3-1.3,4.9c-0.5,1.9-1.3,2.9-1.6,4.5c-0.5,2.6,0,4.6,0,6.8
	c0,2.3,0,3.9-0.8,6.2c-0.3,1.6-1.3,2.3-1.3,3.9c0,2.3,1.6,3.3,2.4,5.2c1,2.6,1.8,4.6,2.1,7.5c0,2.6-1,3.9-1,6.5v4.6
	c0,3.2,0,5.5,0.5,8.8c0.5,2.6,0.8,4.5,1.8,6.8c0.8,2.3,1.3,3.9,2.6,5.9c2.1,3.9,5.5,4.2,7.3,8.4c1,1.9,2.1,3.6,1.8,5.8
	c-0.2,2-1.6,3.6-3.1,4.2c-1.3,0.6-2.4,0-3.9,0h-7c-5.2,0-8.3,0.6-13.5-0.3c-2.3-0.3-3.6-1.9-6.2-1.9c-1.8-0.4-3.1,0-5,0.3
	c-1.8,0.3-2.8,1.6-4.7,2c-2.6,0.6-4.1,0-6.5,0c-2.8,0-5.2,2.3-7.3,0c-1-1-1.8-2.3-1.8-3.9c-0.3-2.6,0.8-4.2,2.1-6.2
	c1.3-1.6,3.1-1.6,4.7-3.3c0.8-1,1.3-1.9,1.8-3.3c2.1-3.6,3.4-5.8,5-9.8c1-2.3,2.3-3.6,2.3-6.2c0-1.6-0.8-2.3-1-3.9
	c-1.3-6.5-0.2-10.7-0.5-17.5c-0.3-6.8-1.6-11.1-1-17.6c0.3-5.2,1.3-8.4,2.3-13.6c0.5-4.2,1.8-6.8,1.8-11.4c0-3.6-0.5-5.8-1.3-9.1
	c-0.5-3.3-2.1-5.2-2.3-8.8c0-3.3,0.8-5.2,1-8.5c0.3-4.2,0.5-7.1,0.8-11c0-3.9-0.2-6.5,0.3-10.4c0.5-3.3,2.1-4.9,2.6-8.4
	c0.3-2.6,0.3-4.2,0.3-6.8c0-3.3,0-5.5-0.3-8.4c-0.2-5.2-0.8-8.1-1.3-13c-0.5-4.2-1-6.8-1.3-10.7c-0.3-3.6,0.3-6.2-0.8-10.1
	c-0.5-3.3-1.6-5.2-3.1-8.1c-1.6-2.6-3.1-3.9-5.2-5.8c-1.3-1.6-2.6-1.9-3.6-3.9c-1-1.6-2.3-2.9-1.8-5.2c0.5-3.3,3.9-1.9,6.5-2.3
	c3.6-1,6-0.3,9.9,0c5.5,0,8.6,0.7,13.8,0.7c4.4,0,7-1,11.2,0c2.6,0.6,4.2,1.6,6.8,2.6c2.1,0.3,3.4,1.3,5.2,1.6
	c3.4,0,5.2-1.9,8.6-2.6c3.1-0.3,4.9,0,8.1-0.3c3.1-0.3,5-1.3,8.1-1.3c2.9,0,4.7,0.6,7.3,1c2.6,0,4.1,0.3,6.8,0.3
	c3.1,0,4.9-0.3,8.1-0.3c2.9-0.3,4.7,0,7.5-0.7c3.9-0.3,6.3-3.3,10.4-3.3c2.1,0.3,4.2,0,5.7,1.6c1.6,1.6,1.8,3.6,2.1,6.2
	C767,318,766.4,319.3,766.2,321.2 M128.2,368.5c-1,1.9-1.5,4.4-3.5,4.4c-1.5,0-2.3-1.3-3.3-2.8c-1.7-2.2-1.7-4.7-2-7.9
	c-0.2-3.1,0.3-5,0-8.2c0-2.2,0-3.8-0.5-6c-0.7-2.2-1.8-3.1-2.5-5.3c-1-1.9-2.5-2.8-2.5-5c0-1.9,0.5-3.2,1.5-4.4c1-1,2.3-1,3.8-1.3
	c1.5-0.3,2.8,0,4.3-0.6c1.8-0.6,2.8-2.5,4.5-2.5c1.8,0.3,3,1.3,4,2.8c1.8,2.2,1.8,4.7,2,7.5c0.2,3.2,0,5-0.5,8.2
	c-0.2,4.1-1.3,6.6-2,10.4C130.5,361.9,130.2,365,128.2,368.5 M218.2,319.1c-0.5-2.5-0.7-5-2.5-6.3c-2.3-1.6-4.3,1-7,1.3
	c-5.5,0.7-8.8,1.6-14.3,1.6c-3.5,0-5.8,0-9.3-0.3c-3-0.3-4.8-1.9-7.8-1.6c-2.3,0-3.8-0.6-5.5,1c-1.3,1.6-1.8,3.4-1.8,5.9
	c-0.2,2.5,0,4.4,1.3,6.3c1,1.6,2.8,1.6,4.3,2.5c2.7,1.3,5,1.3,7.3,3.5c2.5,2.5,3,5.4,4,9.1c1.8,5.7,1.3,9.7,0.5,15.7
	c-0.5,4.1-1.5,6.3-2.3,10.1c-0.7,3.5-1.3,5.7-2.3,8.8c-1.5,4.4-3.5,6.3-5,10.7c-1,3.5-1.5,5.7-2.2,9.1c-0.8,4.1-1.8,6.9-2,11.3
	c-0.2,1.9,0.2,3.1-0.5,5c-0.5,1.6-1.8,2.2-2.5,3.8c-1.5,3.8,0,7.5-1.3,11.6c-0.8,2.5-1.8,3.8-2.8,6.3c-0.7,1.9-1.5,3.2-2.3,5.3
	c-0.7,3.2-0.5,5.4-1.5,8.2c-0.5,1.9-1.3,3.2-2.3,4.7c-1,2.2-2.8,2.5-3.3,4.7c-0.5,1.9,0.5,3.5,0,5.3c-0.5,1.3-1,2.5-2,3.2
	c-1.5,0.6-2.8-1-4-2.2c-1.8-1.3-2.8-2.8-3.5-5.3c-0.7-2.8,1.5-5,0.3-7.5c-0.5-1.6-2-1.9-3-3.1c-1.5-1.6-3-2.5-4.3-4.7
	c-1.5-2.5-2-5-2.3-8.2c-0.2-3.2,0.5-5.3,0.7-8.8c0-4.4,0.5-7.2-0.5-11.6c-0.5-2.2-1.3-3.8-2-6c-1-2.5-2.3-3.8-3-6.6
	c-1-3.1-1.5-5.6-1.5-9.4c0-4.1,1.3-6.6,2.3-10.4c1.3-4.7,2.8-7.2,4-11.9c1-3.2,1.3-5.4,2.3-8.2c0.5-1.9,1.3-3.1,1.8-4.7
	c0.7-1.6,1.5-2.5,2-4.1c0.8-2.5,0-4.7,1-7.2c0.7-2.5,2.3-3.5,3.8-5c2-1.9,3.3-3.1,5.5-4.7c2.5-1.9,4.3-2.5,7-4.1c2-1,3.8-0.6,5-2.5
	c1.3-1.6,2-3.1,2-5.3c0-2.5-2-3.1-3.3-5.3c-1-1.9-1.3-4.1-2.8-5c-1.8-1.6-3.5-0.6-5.5-0.6c-2.7,0.3-4.3,1.3-6.8,1.6
	c-2.7,0.6-4.7,1.3-7.5,1.6c-5,0.6-8.1,1-13.1,0c-3-0.3-4.8-1.3-7.8-1.9c-2.8-0.3-4.5-0.6-7.3-0.6c-4.8-0.3-7.8-0.3-12.6,0.3
	c-3.3,0.3-5.3,1.9-8.5,1.9c-1.8,0-2.8-0.6-4.5-0.6c-2.7-0.6-4.8-1-7.8-1c-2.8,0-4.5-0.3-7.3,0c-1.3,0.3-2.5-0.3-3.8,1
	c-1.5,1.6-0.7,4.4-0.5,6.9c0,1.8,0.3,3.4,1,5c0.5,2.2,1.3,3.8,2.8,4.7c1.3,0.9,2.5,0.3,3.8,1.3c1.5,1,2,2.5,2.8,4.4
	c1.3,2.5,1.8,4.7,2.8,7.5c1,2.2,1.5,3.8,2.2,6c0.7,1.9,1.3,3.5,2.3,5c0.7,1.9,1.5,2.8,2.5,4.4c1.5,2.8,2.3,4.7,3.8,7.5
	c0.7,1.6,1.8,2.5,2.3,4.4c0.7,1.9,0.5,3.5,0.7,5.7c0.5,4.1,1,6.3,2.3,10c1,3.5,3,5.4,4.3,8.8c1.5,4.1,2.3,6.9,3.5,11
	c0.7,2.5,2,3.8,2.3,6.6c0,2.5-1,4.1-1.3,6.6c-0.5,3.5,0,5.6-0.5,8.8c-0.2,2.2-0.7,3.8-1.5,6c-1,3.5-1.8,6-3.5,9.4
	c-1,1.9-2,2.8-3,4.7c-1.3,2.2-2.3,3.5-3.3,6.3c-0.7,2.5-0.7,4.7-1.3,7.8c-0.8,2.2-0.5,4.7-2,6.3c-1,0.6-2.3,0.9-3.8,0.9
	c-2-0.3-3-1.9-4.8-3.4c-1.3-1-2.5-1.6-3.3-3.5c-1-2.5-0.5-4.7,0.2-7.2c0.3-1.6,1-2.2,1.5-3.8c0.5-1.9,1.3-3.1,1.3-5
	c0-2.5-1.5-3.4-2.3-5.6c-1-3.5-1-6.3-2.8-9.4c-0.7-1.6-1.8-2.2-2.7-3.5c-1.3-1.6-3-2.2-3.5-4.4c-0.3-1.6,0.7-2.8,0.2-4.7
	c-0.2-1.6-1.5-2.2-2-3.8c-0.7-2.2-1.3-3.8-1-6c0-1.9,1.3-2.8,1.5-4.7c0.2-1.9-0.2-3.5-0.5-5.4c-0.5-2.2-1.3-3.4-2-5.6
	c-0.7-2.2-2-3.5-2.7-5.7c-1-2.5-1.8-4.1-2.3-6.3c-0.5-2.5-0.3-4.4-0.5-6.9c-0.7-3.8-2.3-6-3-10.1c-0.3-2.8,0.5-5.3-0.5-7.8
	c-0.5-1.6-1.3-2.2-2-3.5c-1.5-3.8-2.8-6.3-2-10.1c0.3-1.9,1-3.1,1.5-4.7c0.5-1.9,0.2-3.8,1.3-5.3c1.3-1.9,3.3-1.3,4.8-2.5
	c1-1.3,2.3-2.5,2.5-4.4c0.3-2.2-1.5-3.5-2-5.7c-0.5-2.5,0.2-4.7-1.3-6.9c-0.8-1.3-1.8-1.9-2.8-2.5c-3-1.3-4.8,1.9-7.8,2.5
	c-3.5,0.6-5.5,1.3-8.8,1.3c-2.5-0.3-3.8-0.6-6.3-1.3c-1.3-0.3-2.3-0.9-3.8-1.3c-4.3-1-7,1.3-11.6,1.3c-4-0.3-6.5-0.9-10.3-1.9
	c-2.5-0.6-4-2.2-6.8-2.2c-1.5,0.3-3.3,0-4,1.6c-0.7,1.9,0.5,3.5,1,5.3c1,3.1,2.3,4.7,4,7.8c1.5,2.5,2.3,4.7,4.5,6.6
	c2.5,2.5,5.5,1,8.1,3.5c1.3,1.3,2,2.8,2.8,4.4c2,3.5,3,6,4.8,9.7c1,1.9,2,3.2,2.8,5.4c2.2,5.3,1.5,9.4,3,15.4
	c1.3,5.6,2.5,9.1,4,14.8c1.3,5.7,2.5,9.1,3.5,15.1c0.2,2.5,0.2,4.4,0.7,6.9c0.7,2.2,1.5,3.5,2.5,5.4c1.5,3.1,2.8,4.7,4,7.5
	c1,2.2,2.3,3.5,2.7,6c0.5,2.2,0,3.5,0,6v7.2c0.5,4.1,0.8,7.2,2.3,10.7c1,1.9,2.5,2.5,3.3,4.7c0.5,1.6,0.3,3.1,0.5,4.7
	c0.7,4.4,1.8,6.9,3.3,11c1,3.1,2.7,5,3.8,8.5c0.5,1.9,0.5,3.5,0.7,5.7c0.5,2.2,1.3,3.5,2,5.6c1,3.8,2,6.3,2.7,10.1
	c0.8,2.5,1,4.4,1.5,6.9c0.5,2.2,1,3.8,1.8,6c0.7,2.2,1.8,3.1,2.5,5.3c0.5,2.8-0.5,5.3,0.3,7.8c0.7,2.5,1.8,3.8,3,5.7
	c1.5,1.9,1.8,4.4,3.8,5c2.3,0.6,3.8-1,5.5-2.8c1.3-1.3,1.8-2.8,2.5-4.7c0.7-2.2,1-3.8,1.5-6.3c1-4.1,1.3-6.6,2.8-10.4
	c1-2.5,2-3.8,3-6c1.5-2.8,2.8-4.7,3.5-7.8c0.5-2.5,0.3-4.7,1-7.2c0.2-0.6,0.7-1.3,0.7-2.2c0.5-1.6,0.3-3.1,0.5-4.7
	c0.2-3.8,0.5-6,1.5-9.4c0.7-2.8,1.3-5,2.5-7.2c0.7-1.6,1.5-2.2,2.3-3.8c0.5-1.3,0.2-2.5,0.7-3.8c1.3-3.1,2.3-5.6,4.8-6.6
	c2-0.6,3.8-0.6,5.3,0.6c2.3,1.6,2.8,4.1,3.3,7.2c0.3,1.9-0.5,3.5,0,5.4c0.5,2.5,1.5,3.1,2.5,5.3c1,2.2,1.5,4.1,2.5,6.3
	c1,2.5,1.3,4.4,2.5,6.6c1,2.2,2.3,2.8,3,4.7c1,2.5,0.2,4.4,1,6.9c1,2.8,2.5,3.8,3.8,6.6c1.5,2.8,2.3,5,3.3,8.2
	c0.5,2.5,1,4.1,1.3,6.6c0,2.5-0.8,3.8-0.8,6c0.3,4.1,1,6.9,3.3,9.4c1.5,1.9,3,3.1,5.5,3.1c2,0,3.5-1.3,5-3.1c1.3-1.6,1.8-3.5,2.5-6
	c0.5-2.2,0.7-4.1,1.3-6.6c0.5-2.2,1-3.5,1.5-6c0.5-2.5,0.2-4.7,1-7.2c0.5-2.5,1.3-3.8,1.8-6c1-3.5,1.5-5.7,2.2-9.1
	c0.5-3.1,0.5-5.3,1.3-8.2c0.3-0.9,0.8-1.9,1-2.8c1.3-3.8,2-6.3,2.8-10.7c0.3-1.9,0.3-3.4,1-5.6c0.5-2.2,1.8-3.2,2.5-5.3
	c1-3.2,1.5-5.3,2-8.8c0.7-3.5,0.7-5.7,1.8-9.1c0.5-2.5,1.5-4.1,2-6.6c1.3-3.8,1.5-6.6,2.5-10.7c0.8-2.8,1.3-4.7,2.3-7.2
	c1.3-2.8,3-4.1,4-6.9c2-3.8,2.3-6.9,3.3-11.6c1.8-7.5,3.3-12.3,4.3-20.4c0.2-2.8,0.5-4.7,1-7.2c0.5-3.5,1.5-5,2.5-8.5
	c0.7-3.5,0-6.6,1.7-9.5c0.8-0.9,1.5-1.3,2.3-2.2c1-1.9,0.5-3.8,1.5-5.7c1-1.6,2.8-2.2,4-3.8c2.5-2.5,4.3-4.4,6-7.9
	c1.5-2.5,2.5-4.4,3.3-7.8C218.4,324.5,218.7,322.3,218.2,319.1 M167.3,180.2c-1,2.7-2.6,3.4-3.9,5.4c-1.3,2-2.1,3-2.8,5.1
	c-1.3,3.4-0.8,5.7-1,9.4c-0.5,6.1-0.5,9.8,0,15.8c0.2,3.4,1,5.4,1.3,8.4c0,2.7,1,4.7,0,6.7c-1.3,2.7-3.4,2.4-5.4,3
	c-2.3,0.7-3.6,0.7-5.9,1.3c-4.9,1-8,3-13.2,4.1c-2.6,0.7-4.1,1.3-6.9,1.3c-2.3,0-3.9-0.4-6.2-0.4c-2.1,0-3.4-0.3-5.4,0.4
	c-1.6,0.3-2.3,1.3-3.8,2c-3.4,1.7-5.7,2.4-9.3,2.7h-5.9c-4.7,0-7.7,1-12.4,1c-5.4,0.3-8.7,1.3-13.9,0c-2.1-0.3-3.4-1-5.4-1.7
	c-2.8-0.7-4.6-1.3-7.5-2.7c-2.3-1.3-3.9-3-6.2-4.7c-3.6-2.7-5.9-4.1-9.5-6.7c-2.1-1.7-3.9-2.7-5.7-5.1c-1-1.3-1.6-2.7-2.6-4
	c-1.5-2.4-2.8-3.4-4.6-5.1c-2.3-2.7-3.9-4.1-5.9-6.7c-2.1-2.4-3.3-4.1-4.9-6.4c-1.8-2.7-3.1-4.7-4.7-7.8c-2.3-4.7-4.4-8.1-5.4-13.8
	c-0.3-1.4-0.3-2.7-0.5-4.1c-0.5-3-1.5-4.4-2.3-7.1c-0.8-2.4-1.3-4.4-2.1-6.8c-0.8-3.4-1.8-5.4-2.6-8.7c-0.5-3.7-0.5-6.4-0.5-10.1
	v-6.1c0-3.7,0-6.4-0.2-10.1c-0.3-3.4-1-5.4-1.3-8.8c-0.2-4.1-0.5-6.7,0-10.5c0.3-3,0.8-4.7,1.3-7.4c0.5-4.1,1-6.4,2-10.1
	c0.5-1.7,1-2.7,1.3-4.4c1-4.1-0.3-7.1,0.8-11.5c0.2-1.7,1-3,1.5-5C8.2,69,8,66.6,8.8,64.3c1-2.4,2.3-3.7,3.6-5.8
	c1.3-2.4,2.1-4,3.1-6.4c1.3-2.7,1.8-4.7,3.4-7.1c0.7-1.3,1.5-2,2.3-3c1.8-2.7,2.9-4.4,4.7-7.1c1.6-2,2.6-3.4,3.9-5
	c2.1-2.1,3.3-3.4,5.7-5.4c2.8-2.7,4.6-4.1,7.7-6.4c3.6-3,5.9-5.4,10.1-7.4c3.3-2,5.7-2.4,9.3-3.4c2.6-0.7,4.4-0.7,6.4-1.7
	c2.1-1.4,2.8-3.7,4.9-4.4c1.8-0.7,3.1,0,4.9,0c2.6,0,4.4-0.7,6.9-0.7c8-0.7,12.4-0.7,20.4,0c2.8,0,4.9,0.3,8,0.7
	c4.4,0.7,6.9,1.7,11.3,3.4c3.8,1.7,5.7,4.1,9.5,6.1c1.6,0.7,2.6,1.3,4.1,2c2.1,1,3.3,2,5.1,3c3.6,1.7,5.9,2,9.3,4.1
	c2.3,1.3,4.4,1.3,5.9,3.7c0.8,1.7,1,3,1.6,5c0.8,4.1,0,6.7,0,10.5c0,5,0.5,7.8,0.5,12.8c0,4.7-0.5,7.8-0.8,12.5c-0.2,3,0,5-0.5,8.1
	c-0.3,2,0,4.4-1.6,5.4c-1.8,1.3-3.6-0.3-5.4-1.7c-1.8-1.3-2.6-3-3.9-5c-2.1-3-4.1-4.7-5.7-8.4c-1.3-2.7-1.3-5-2.3-8.1
	c-0.8-2-1.5-3.4-2.6-5.4c-1-2-2.1-3-2.8-5.1c-0.8-1.7-0.3-3.4-1.3-5c-1.3-1.7-3.3-1-5.2-2c-1-0.4-1.8-1-2.8-1.7
	c-2.6-1.3-4.1-2.4-6.4-3.7c-1.8-0.7-2.8-1.3-4.6-2c-4.1-1.7-7-1.3-11.4-2c-2.3-0.7-3.8-1.3-6.4-1.7c-2.3-0.7-4.1-0.3-6.4-1
	c-2.6-0.3-3.8-1.3-6.2-2c-2.1-0.7-3.3-1.7-5.4-1.3c-1.8,0.3-2.8,1.3-4.7,2c-1.3,0.7-2.3,1-3.9,1.7c-2.6,1.3-4.4,3-6.7,4.7
	c-1.8,1.3-3.1,2.7-4.9,4.4c-2.1,1.7-3.1,3.7-5.2,5.1c-0.8,0.7-1.8,1-2.6,1.7c-1.3,1.3-1.8,3-2.6,4.7c-1.6,3.4-1.8,5.7-3.1,8.8
	c-1,2.7-1.3,4.7-2.8,6.7c-0.8,1.3-2.1,1.7-2.6,3c-0.8,2,0.3,4,0,6.4c-0.2,2.7-1.3,4.1-1.6,6.8c-0.5,2.3-0.5,4-1,6.4
	c-0.5,1.7-1,2.7-1.6,4.4c-0.8,2-1.8,3-2.3,4.7c-0.5,1.4-0.8,2.4-1,3.7c-0.2,2.4,0,3.7,0.3,6.1c0.3,1.7,0.8,3,1,4.7
	c0.3,2.7,0.3,4.7,0.3,7.4c0.3,3,0.3,5,0.5,8.4c0,4.4-1,7.1,0,11.2c0.2,1.7,1.3,2.7,1.3,4.4c0,2-1.3,3.4-1.8,5.4
	c-0.3,2.7-0.7,4.7,0,7.1c0.5,1.3,1.3,1.7,1.8,2.7c0.8,2,0,4.1,0.2,6.4c0.3,2.7,0.8,4.4,1,7.1c0.3,2.7,0,4.7,0.5,7.4
	c0.5,2.4,1,4.1,1.6,6.4c0.5,2,1,3.7,1.8,5.7c0.5,2.7,1.3,4.4,2.1,6.7c1.6,3.7,2.8,5.7,4.4,8.8c1.3,2.4,2.1,4,3.6,6.1
	c3.1,3.7,5.7,4.4,9.3,6.8c4.6,2.7,7.5,3.7,12.3,5.4c6.4,2.4,10.6,3.4,17.3,4.4c3.9,0.4,6.2,0.7,10.1,0.7c6.9,0,12.6,2.4,18-3.7
	c1.8-2.4,2.8-4.4,4.1-7.1c1.3-3,2.1-5,2.8-8.1c1-3.7,1.6-6.1,1.6-9.8c0.3-3.7-0.5-6.4-1.3-10.1c-0.5-3.4-0.3-6.4-2.1-8.8
	c-1.3-1.7-2.6-2-4.4-3c-2.6-1.4-4.7-1-7.7-2.1c-1.6-0.3-2.9-0.3-4.1-1.7c-1.3-1.3-2.3-3-2.3-5.4c0.2-2.4,1.5-4,3.3-5
	c2.3-1.3,6.7-0.7,10.8-0.7s6.4,0,10.3,0.3c3.4,0,5.2,0.7,8.5,0.7c2.1,0,3.4-0.3,5.4-0.3c4.4-0.4,6.9-0.4,11.6-0.4
	c3.3,0,5.7-0.7,9,0.4c1.6,0.7,2.8,0.7,3.9,2c1.5,2.7,0,5.7,0,9.1C168,175.2,168.3,177.5,167.3,180.2 M309.8,211.9
	c-1-1-2-0.3-3.3-0.3c-2.5-0.4-4.3-0.4-6.8-1.3c-2-1-3.5-2-5-4.3c-1.8-2.6-2-5.2-2.7-8.8c-0.3-2.6-0.3-4.3-0.5-6.6
	c-0.5-3-1.2-4.9-2-7.9c-1-4.9-2-7.5-2.5-12.5c-0.5-3.9-0.2-6.5-0.5-10.8c-0.5-4.6-0.7-7.5-1.7-12.1c-1-5.2-1.3-8.9-4-12.8
	c-1.3-2-2.7-2.6-4.2-3.9c-1.3-1.3-3-1.3-3-3.3c-0.3-1.6,1-2.6,1.7-3.9c1.3-1.3,2.5-1.7,4-2.7c2.2-1.6,3.8-2.3,6-3.3
	c1.5-1,2.8-1.3,4-2.6c1.5-1.6,2-3.6,3-5.5c1.7-2.6,3-3.9,4.5-6.6c2-3.3,3.5-4.9,5-8.5c1-2.6,2-4.6,2.5-7.5c0.5-3.3,0.2-5.6,0.2-9.2
	c0-4.3-0.2-6.9-1-11.2c-0.5-4.9-1.3-8.2-2.8-12.8c-1.2-3.6-2.2-5.9-4-8.9c-2-3.6-3.5-5.6-6-8.5c-2.2-2.6-3.8-4.6-6.3-6.9
	c-5.2-4.9-8.8-7.5-14.8-10.5c-2-0.7-3.3-1.6-5.5-2c-1.8-0.3-3,0.3-5,0c-1.8-0.3-2.8-1.3-4.5-2c-2.5-1-4.3-1.6-6.8-2
	c-4-1-6.7-1.3-11.2-1.3c-3.8,0-6,0.7-9.5,1.3c-2.7,0.4-4.8,0-7.5,0.7c-1.8,0.7-2.8,2.3-4.8,2c-1.5,0-2.2-1.6-4-2.3
	c-2.5-1-4.5,0-7.3,0c-3.3,0-5.2-0.4-8.3-0.4c-2-0.3-3.5-1.3-5.5-0.6c-1.5,1-2.5,1.9-3.3,3.9c-1,2-0.5,3.9,0,6.6
	c0.5,2.6,1.8,4.3,3.3,5.9c1.5,1.6,3.3,1.6,4.8,3.3c1.3,1.6,2,3.3,2.5,5.6c0.5,2.3-0.8,4.6,0.2,6.6c0.7,1.3,1.8,1.6,2.3,2.6
	c1.8,3.3-0.8,6.5-0.5,10.5c0,3.6,0.5,5.6,0.7,9.2c0.5,4.6,1,7.5,1,12.1c0,5.2-0.5,8.2-0.5,13.1c-0.5,7.9-0.7,12.5-0.7,20v7.9
	c0,6.2,0.5,10.1,0.7,16.4c0,7.9,0.7,12.8,0.2,21c-0.2,4.3-1,6.9-1.3,11.5c-0.5,6.9,0,11.5,0,18.7c0,6.9,1.3,11.2,0.5,18.3
	c-0.5,5.3-0.7,8.6-2.7,13.2c-1.5,3.6-3.3,5.5-6,8.2c-2,2-4.3,2-5.8,5c-1,1.6-1.8,3.3-1.8,5.2c0.5,4.6,5.5,2.6,8.8,3
	c3.5,0.3,5.5-0.3,8.8-1c3.5-0.3,5.8-1.6,9.3-2c1.8-0.3,3.3-0.3,5.3-0.3c2,0,3.3,0.7,5.2,0.7c3.8,0.3,6,0.3,10,0c3,0,4.7,0,7.8-0.3
	c2.2-0.3,4,0,6.3-1.3c1-0.3,2.5-0.3,2.7-2s-1.3-2.3-2.3-3.3c-3-3.9-7-3-10.3-6.9c-1.8-2.3-2.8-4.3-3.8-6.9
	c-1.5-4.6-1.8-7.5-2.3-12.5c-0.5-5.2,1.3-8.9-0.2-13.8c-0.5-2.3-1.3-3.6-2.5-5.6c-0.7-1-2.3-1-2.3-2.6c-0.2-1.7,0.8-2.7,1.3-4
	c0.8-2,2-2.9,3-4.9c1.3-3.9,0.5-7.2,0.5-11.5c0-3.9-0.3-6.2-1-9.8c-0.5-3.9-2.7-5.5-2.5-9.5c0-2,0.3-3.3,1-4.9c1.5-3.3,4-3.6,7-4.6
	c3-1,5.3-2,8.3-1.3c3.8,1,5.8,3,8.5,5.9c3,3.3,4,6.2,6,10.5c1.5,3.3,2.7,5.3,3.8,8.9c1.8,5.6,1.5,9.5,1.5,15.7
	c0,3.6-0.5,5.9-0.2,9.5c0.2,5.9,2.2,9.2,3.8,15.1c1.3,4.9,2.3,7.9,3.8,12.8c1,3.3,1.5,5.3,2.7,8.6c1,2.3,2.3,3.3,3.3,5.5
	c0.5,1.6,0.7,2.6,1.2,4.3c1.8,3.6,3,5.9,5.5,8.2c2.8,2.6,5,4.9,8.3,4.3c1.7,0,2.7-1,4.2-2c3.3-2,5.5-3.6,8-7.2
	c3-4.3,3.5-7.9,5.3-12.8C308.3,216.2,311.5,213.6,309.8,211.9 M276.5,82.7c-0.3,2.3-0.5,3.9-1.3,5.6c-0.5,1.3-1.3,1.6-1.7,2.6
	c-2.5,3.6-2.5,7.5-4.8,11.5c-3,4.9-5.3,7.5-9.8,9.5c-2,1-3.5,1.3-5.5,1.7c-3,0.6-5.2,2.6-8,1c-0.5-0.3-1-1.3-1.8-1.6
	c-2-1-3.5,1.3-5.8,0.7c-2.5-0.4-4-2-5.8-4c-1.5-1.3-2.3-2.6-3.3-4.2c-3.3-6.9-0.3-13.2,0-21c0-3.3,1-5.6,0.2-8.5c0-1.3-0.2-2-0.7-3
	c-1.3-2-3.8,0-4.8-2c-0.5-1.6,0-3.3,0.5-4.9c0.3-2.3,1.5-3.3,2-5.6c0.7-2.6,0.5-4.6,1-7.5c0.5-4.6,0.2-7.5,1.5-11.5
	c1-3.3,1.8-5.2,3.5-7.9c1.3-1.6,2.5-3,4.3-3.9c2.3-1,4-1,6.3-1c1.5,0.3,2.5,0.7,3.8,1c1.8,0.3,3,0.7,4.8,1.3c2.2,0.7,4,1,6.3,2.3
	c1.5,1,2.5,2,3.8,3.6s1.8,3.3,2.7,4.9c1.5,2.3,3,3,4.5,5.2c2,3.3,3.3,5.9,4,10.2c0.5,2.3,0.5,3.9,0.5,6.2c0.2,2.6,0.2,4.3,0.7,6.6
	c0.5,3.3,2,4.9,2.2,8.2C276.2,79.8,276.5,81.1,276.5,82.7 M450.1,53.9c-1,1-2,1.3-3.3,1.3c-3,0-4.5-3.9-6.3-7.2
	c-1.3-2.6-1-5.2-2.5-7.9c-2-3.3-4.5-3.6-7.5-5.6c-5-3.6-7.8-6.9-13.3-8.5c-2-0.6-3.5-1.3-5.5-1.3c-2,0-3.3,0.7-5,1.3
	c-1.7,0.4-2.5,1.7-4.2,1.7c-2.3,0-3-2.6-5.3-4c-2.7-1.3-4.8-2-7.8-2.3c-2.3-0.4-3.8-0.7-6,0c-2,0.6-3.5,1.3-5,3.3
	c-1.5,2.3-1.8,4.3-1.8,7.2c-0.2,3.9,1.5,5.9,2,9.5c0.8,3.3,1.3,5.2,1,8.9c0,3.6-1,5.9-1.8,9.5c-0.7,3.3-2.5,4.9-2.5,8.5
	c-0.2,3,0.5,4.6,1.3,7.5c0.2,1.9,1.3,3.3,1.5,5.2c0.5,3,0.5,4.9,0.2,7.9c0,2.6-1,4.2-1.3,6.9c-0.3,3,0,5.2,0.2,8.2
	c0.3,2.3,0,4.6,1.3,6.2c1.3,1.6,2.5,1.6,4.3,2.3c1,0,1.8,0.3,3,0.3c2.8,0,4.5-0.3,7.3-1.3c2.5-1,3.8-2.6,6.3-3.9c1.5-0.7,2.7-1,4-2
	c2.5-2,2.5-5.2,4-8.2c2-3.3,2.8-7.5,6-7.9c1.5,0,2.8,0.3,4,1.3c2.5,2.3,1.3,6.6,1.3,10.5c0,3.3,0,5.6-0.5,8.5
	c-0.5,2.3-1.5,3.6-2,5.9c-0.8,4.6,1.3,7.5,1.8,12.1c0.5,7.5,1.3,12.4,0.5,19.7c-0.2,3.3-2.2,5.2-4.7,5.9c-3,0.3-4.5-3-6.5-6.2
	c-1.5-2.6-1-5.6-2.7-7.8c-1.8-2-3.5-2-5.8-3c-2-0.7-3.3-1-5.3-2c-3-1.6-4.3-4.6-7.2-6.2c-2.8-1.3-4.8-2.6-7.8-2.3
	c-2,0.4-4,0.4-5,2.3c-0.7,2-0.5,3.6-0.2,5.9c0.2,2.6,1.5,4.3,2.3,6.9c0.7,3.6,1.3,6.2,1.3,10.2c-0.2,3.9-0.7,6.2-1.8,9.8
	c-0.5,2.6-1.8,3.9-1.8,6.6c0,2.3,0.8,3.6,1,5.6c0.3,2.3,0,3.9,0.3,6.2c0.2,2.7,1.5,3.9,1.5,6.6c0.2,2.6-0.7,4.3-1,6.9
	c-0.2,3-0.5,4.6-0.5,7.5c0,3.3,0.5,5.2,1,8.5c0.3,3,0.3,5.2,1.5,7.9c1,2.6,2.3,3.9,4,5.5c1.8,2,3,3.6,5.3,4.6
	c3.3,1.6,5.5,1.3,8.8,1.3c3.5-0.3,5.8-1,8.8-2.6c1.5-0.7,2.2-1.3,3.7-2c2.3-0.7,4,0.3,6.3-0.3c2.5-0.7,4.3-1.3,6.3-3
	c3-2.3,4-4.9,6.3-8.5c0.7-1.3,1.5-2.3,2.3-3.6c1-2.6,1-4.9,1.7-7.9c1.8-5.2,2.3-9.5,6-12.5c1.8-1,3-2.3,5-2c1.3,0.3,2.3,1.3,3,2.6
	c1.8,2.3,0.5,5.2,0.7,8.5c0,2,0.7,3.6,0.2,5.6c-0.2,2.3-2,3-2.5,4.9c-0.7,3,0,5.2,0.3,8.2c0.5,3.3,1.5,5.2,1.8,8.2
	c0,3.6,0,5.9-1,9.2s-2,5.6-4.5,7.2c-3.3,2.6-6,0.3-9.5,0c-2.7,0-4.5-0.7-7-0.7c-4.3-0.3-6.7,0-11,0c-5.2,0-8.5-0.3-13.5,0.3
	c-2.8,0.3-4.8,1.3-7.5,1.3c-3,0-5-1.3-7.8-1.6c-4-0.7-6.5-0.7-10.5-1c-3,0-5-0.3-8.3-0.3c-3.5,0-5.8,1-9.3,1.3c-8.5,0.7-15.5,0-22,0
	c-6.3,0-7.3-0.7-7.5-4.9c0-1.9,0.5-3.3,1.3-4.9c1.2-2.6,3.5-2.6,5.8-4.2c2.2-1.7,3.8-2.7,5.8-4.9c2-2,3.3-3.3,4.5-5.9
	c1.3-3.3,1.3-5.6,1.5-9.2c0.5-3.3,0.5-5.6,0.7-8.9c0-3.9,0-6.2,0.2-9.8c0.3-6.2,0.7-10.1,0.5-16.1c0-2.3-0.5-4.2-0.5-6.9
	c0-3.9,1.3-6.2,1.3-10.1c0-3.3-0.7-5.2-1-8.2c-0.3-4.3-1-7.2,0.2-11.2c0.7-2.3,2.5-3,3-5.2c0.5-2.3,0-4.2-0.5-6.6
	c-0.5-3-2.7-3.9-3-6.9c-0.2-2.3,0.3-3.6,0.5-5.9c0.2-1.6,1-2.6,1-4.3c0-2.3-1-3.6-1.3-5.9c-0.3-3.6,0.7-5.9,1.3-9.8
	c0.5-3.3,0.7-5.5,1.5-8.9c1-3.3,2.5-5.2,3-8.5c0.3-3.9-0.2-6.2-0.7-9.8c-0.3-3-0.7-4.6-1.3-7.5c-0.5-4.6-0.5-7.5-1.3-12.1
	c-0.2-2.6-0.2-4.6-1.3-6.9c-1.3-3-3-3.6-5-5.9c-2.8-3-5-4.6-7.8-7.5c-2-2.3-4.7-3-5-6.2c-0.2-2.3,0.7-3.9,1.8-5.9
	c1.5-1.6,4.8-1.6,7.5-1.6c2.7,0,4.3,1,7,1.3c3,0.7,4.8,1,7.8,1.6c3.3,1,5.3,3,8.5,3c2.5,0,3.8-1,6.3-1.6c2.2-0.7,3.8-2,6-2
	c2.8-0.3,4.3,0.7,7,0.7c2.3,0,4-0.3,6.3-0.7c3.5-0.7,5.8-2,9.2-2.3c3.5,0,5.5,1,8.8,1.3c2.7,0.3,4.5,0,7,0.3c3,0.7,4.5,2.6,7.3,3
	c2,0,3-0.3,4.7-0.3c2.3-0.4,3.8-1,6-1c2.7,0,4.8,0,7.5,1c3.8,1,6.3,1.9,9,5.2c1.3,1.3,2,2.6,2.8,4.6c1.8,3.9,1,7.2,1.3,11.8
	c0.5,3.9,1.3,6.2,1,10.2C451.6,48.6,452.4,51.9,450.1,53.9 M628.1,231.6c-0.5-2.3-2-3.3-3.5-4.6c-2.2-2-4.2-2-6.3-3.9
	c-2.2-2.3-3.8-4.3-5-7.5c-1-2.6-0.7-4.6-1.5-7.2c-1-3-1.8-5.2-3.5-7.5c-1-1.3-2.5-1.3-3.3-3.3c-1-2.3-0.2-4.3-0.5-6.9
	c0-2.3-0.5-3.6-0.7-5.9c-0.5-2.3-1.3-4-2-6.6c-0.5-1.3-0.7-2.6-1.2-3.9c-0.5-2-1-3.3-1.5-5.2c-0.5-2-1-3.3-1.5-5.2
	c-0.7-2.3-1.3-3.9-2-6.2c-1-3.3-1.8-5.2-2.8-8.5c-1-3.3-1.8-5.5-2.7-8.5c-1.3-3.6-3.3-5.2-3.8-9.2c-0.5-3.3,0-5.2,0-8.5
	c-0.3-2.6,0-4.3-0.8-6.6c-0.2-1-0.7-1.6-1.3-2.6c-0.7-1.6-1-3-1.5-4.6c-0.7-2.6-0.7-4.6-1.3-6.9c-0.5-2.3-1.3-3.6-1.5-5.9
	c-0.5-2.6,0.2-4.6-0.5-6.9c-0.2-1.9-1.3-3-1.8-4.6c-1.5-4.3-0.7-7.5-2.2-11.8c-0.8-2.6-2-3.9-2.8-6.6c-0.7-2.3-1-4.3-1.3-6.6
	c-0.5-3.6-0.5-6.2-1.3-9.8c-0.7-3.6-1.8-5.9-2.7-9.2c-1-2.9-2-4.6-3-7.5c-0.7-2.6-1.5-4.6-2-7.2c-0.7-2.6-1-4.3-1.3-6.5
	c-0.5-3.6,0.5-5.9-0.5-9.2c-0.3-2-0.7-3.6-2.3-4.6c-1.5-1-3-0.7-4.8,0c-1.8,1-3,2.3-4,4.3c-2.3,3.9-0.5,7.9-0.7,12.8
	c0,2.3,0,4.3-0.3,6.9c0,2,0,3.3-0.2,5.3c-0.5,3-1,4.9-2,7.5c-0.5,1.3-1.5,2.3-2,3.9c-0.8,2-0.8,3.9-1.3,5.9
	c-0.7,3.3-1.2,5.2-2.2,8.2c-0.7,2-1.5,3.3-2.3,4.9c-0.7,2.6-1.5,4.3-2.3,6.6c-0.5,2.3-1,3.6-1.7,5.9c-0.7,2-1.3,3.6-2,5.6
	c-0.2,1.6-0.5,2.6-0.7,4.3c-0.7,2.9-0.7,5.2-1.7,8.2c-0.8,2.9-1.5,4.9-2.8,7.2c-0.7,1.6-1.8,2.6-2.5,4.3c-1,2.6-1,4.6-1.5,7.5
	c-0.5,2.6-1,4.3-1.5,6.6c-0.5,2.3-0.7,3.9-1.3,6.2c-1,3.3-2.7,4.9-4.2,8.2c-1,2.7-2,4.6-3,7.2c-1,3-1.8,4.6-2.5,7.5
	c-0.5,2.6-1,4.6-1.5,7.2c-0.5,3-0.7,4.6-1.3,7.5c-0.2,3,0.3,5.2-1,7.9c-1,2.6-3.3,2.6-5,4.9c-1.5,2.6-2,4.9-3.3,7.5
	c-1,2.3-2,3.6-3,5.5c-2.3,5.3-3.8,8.5-5.8,14.1c-1.3,2.6-1.5,4.6-3,6.9c-1.5,2.6-3.3,3.3-5.2,4.9c-2.8,2.3-4.3,4.3-7.3,6.2
	c-2,1.3-4,1-5.5,3.3c-1,1.6-1.7,3.3-1.5,5.6c0.2,4.3,4.3,3.9,7.5,5.6c3.8,1.6,6.5,1.3,10.5,1.9c4,0.4,6.3,1,10.3,0.7
	c2.5,0,4.2-0.7,6.7-0.7c3.8,0,5.8,1.3,9.5,1c2,0,4.3,1.3,5.5-0.6c0.8-1,1-2,1.3-3.3c0.5-2.6,0.2-4.9-0.5-7.2c-0.8-2-1.8-3.3-2.8-4.6
	c-1.5-1.6-2.7-2.3-4.3-3.6c-1.5-2-2.7-3-3.8-5.6c-1.3-2-1.8-3.9-2-6.6c-0.2-3,0.7-4.9,1.3-8.2c0.7-4.6,1.3-7.6,2.8-11.8
	c0.7-2.6,2-3.9,2.7-6.5c1-3,1.3-5.2,2-8.5c0.5-2,0.7-3.6,1.5-5.6c0.7-2.3,1.7-3.6,2.5-5.9c0.7-2.6,1-4.6,1.5-7.2
	c0.7-3,0.7-4.9,2-7.5c1.3-2.6,2.5-4.3,4.5-5.5c2-1.3,3.5-1.7,5.8-2c1.8-0.3,2.7,0,4.8,0c1.2-0.3,2-0.3,3.3-0.7c2.5,0,4-0.7,6.3-0.7
	c3-0.3,4.8-0.6,7.5-0.3c2.3,0,3.8,0,5.8,0.7c1.5,0.3,2.5,0.6,4,1.6c0.7,0.7,1.3,1.3,1.7,2c1,1.3,1.8,2.3,2.5,3.9
	c1,1.9,1.8,3.3,2.3,5.5c0.5,2.6-0.2,4.3,0.2,6.6c0.5,2.3,1.3,3.6,2.3,5.2c0.5,1.3,1,2,1.5,3c1,2.3,0.5,4.6,1,6.9
	c0.5,2,0.7,3,1.5,4.9c0.5,1.6,1.2,2.6,2,3.9c1,2.7,3,3.3,3.3,6.2c0.5,2-0.2,3.3-0.2,5.3c0.2,3.3,1,5.2,2,8.2c0.5,1.6,1,2.6,1.5,4.3
	c0.5,2,0.7,3.6,1,5.6c0.2,2.6,0.2,4.3,0.2,6.6c0,2-0.2,3.3-0.7,4.9c-0.7,3-1.8,4.6-3.8,6.2c-2,2-4,1.6-6.3,3c-1.8,1-4.5,1-4.5,3.6
	c-0.2,1.6,0.5,2.6,1.3,3.6c2.2,3.9,6,0.7,9.5,0.3c1.5,0,2.5-0.3,3.8-0.3c3.8-0.3,5.8-0.7,9.5-0.7c4,0,6.3,0.4,10.3,0.4
	c4.7,0,7.5,0.3,12,0.3c2.3,0,3.8,1,5.8,0c1.7-0.7,3.3-1.6,4-3.9C628.1,234.9,628.3,233.3,628.1,231.6 M560.6,117.8
	c0,2,0,3.6-0.7,5.2c-1.3,2.6-3.8,2.3-6.3,3c-2.2,0.3-3.8,0.3-6,0.3c-1.5,0-2.5,0-4-0.3c-1.7-0.3-3.5,0-5-1.6
	c-1.5-1.6-1.5-4.3-1.7-6.9c-0.3-2.3-0.3-3.6-0.5-5.9c0-2.6-0.2-4.6,0-7.5c0.5-3.3,1.8-5.2,2.5-8.2c0.5-2,0.7-3.6,1.3-5.9
	c1-3,2.2-4.6,3.5-7.5c0.8-2,1.8-3,2.3-4.9c0.5-2,0.2-3.3,1-4.9c0.2-1.3,0.7-2,1.5-2.6c1-0.7,2.3-0.7,3.5-0.3
	c1.5,0.3,2.8,0.7,3.8,2.3c0.5,1.3,1,2.3,0.7,3.9c0,0.7-0.7,1-1.3,1.9c-0.5,1.3-1.3,2.3-1.3,4c0,2,1.3,3,2,4.6c0.5,1.3,1.3,2,1.5,3.3
	c0.8,2.6-0.2,4.6,0,6.9c0.3,3,0.8,4.9,1.3,7.5c0.7,3.3,1.5,5.2,1.7,8.9C560.6,114.5,560.9,115.9,560.6,117.8 M766.9,29.6
	c-1.3,4.3-2.8,6.9-3.5,11.5c-0.7,4.9,0,8.2,0,13.5c0,1,0.3,1.6,0,2.6c-0.5,2-2,2.3-3.5,2.6c-1.8,0.3-3.5,0-5-1.6
	c-1.3-1.6-1-4-1.5-6.2c-0.5-3-0.2-5.2-1-8.2c-0.8-3.3-2-5.6-4-8.5c-2.3-2.9-4.5-3.6-7.2-5.6c-1.5-1.3-2.5-3.6-4.5-3.3
	c-1,0-1.8,1-2.5,1.3c-1.7,0.3-2.7,1-4.5,1c-1.7,0-2.7-1.3-4.8-2c-2-0.7-3.5-1.3-5.8-1.3c-1.8,0.3-3,0-4.3,1.3c-2.2,2-1.5,5.6-2,9.2
	c-1,7.2,0,11.8,0,19.4c0,5.9-0.2,9.5,0.2,15.1c0.3,2,0.8,3.3,0.8,5.6c0,2-0.8,3.3-1,5.2c-1,7.5-1,12.5-0.2,20c0.2,3,0.7,4.6,1,7.5
	c0.5,5.6,1,9.5,0.3,15.4c-0.3,1.6-0.8,2.6-1,4.3c-0.7,4.6-1,7.9-0.2,12.5c0.2,2,1.3,3.3,1.5,5.2c0.7,4.3,0.3,7.2,0.3,11.5
	c0.2,3.3,0,5.9,0.7,9.2c0.3,1.3,1,2.3,1.3,3.9c0.2,2.6-1,4.3-1,6.9c0.3,1.9,0.7,3.3,1.3,5.2c0.2,1,0.5,2,0.7,3c0.3,3-1,4.9-1.3,8.2
	c-0.2,2.6-0.7,4.3-0.7,6.9c0,4.9,1,7.5,2.5,11.8c2,5.2,3.8,7.8,7,11.5c3.3,3.6,7.3,3,9.8,7.6c1.3,2.3,3.3,3.9,2.3,6.5
	c-0.5,1.3-1.5,1.6-2.5,2.3c-2.5,1.6-4.5,0.3-7.3,0c-2-0.3-3.3-1-5.2-1.6c-6.3-1.3-10.3,0.3-16.6,0c-4.3,0-7-0.3-11.3-0.3
	c-3.3,0-5.5,0-8.8,0.3c-3,0.7-4.7,1.3-7.8,2c-1.5,0.7-2.5,2.3-4,1.6c-1.8-0.3-2.5-2-3-3.9c-0.7-1.6-0.7-3.3-0.5-5.2
	c0.8-2.6,2-3.6,3.8-4.9c1.5-1.3,2.8-1.6,4.3-2.9c2.5-2,4.5-3.6,5.8-6.9c1.3-3.3,1-5.6,1.3-9.2c0.3-3,0.5-5.2,0.3-8.5
	c0-2.3-0.7-3.9-1-6.6v-4.6c0.3-2.6,1-4.3,1-6.9s-0.3-4.3-0.3-6.9c-0.2-5.6-0.2-9.2-0.7-14.7c-0.2-4.6-0.7-7.5-0.7-12.1
	c0-2.3,0.2-3.9,0.2-6.2c0.5-11.2-1.2-18.4,0.3-29.5c0.2-1.3,0.5-2.6,0.7-3.9c0.2-3,0-4.9,0-7.9c0-3.9,0.5-6.6,0-10.5
	c-0.5-1.6-1-3-1.3-4.6c-0.5-1.3-2-2.6-1.3-3.9c0.7-1.6-0.2-6.9,0-10.8c0-1.9,0.3-3.3,0.5-5.2c0-1,0.2-2,0.2-3c0.5-3.6,1-6.2,0.5-9.8
	c-0.2-1.6-1-3-1.3-4.6c-0.5-1.6-1-2.6-1.3-4.3c-0.7-2.6-0.3-4.9-1.3-7.2c-0.7-1.6-1.8-2.3-2.5-3.3c-1.5-1.9-2.5-3.3-4.2-4.6
	c-1.5-1.3-2.5-3-4.5-3.3c-1.8-0.4-3.3,0-5,1.3c-1.3,0.7-1.5,2-2.8,2.6c-1.7,1.3-3.5,1.3-5.2,2.3c-2.5,1-4.3,1.6-6.3,3.6
	c-2,2-3.3,3.6-4.3,6.6c-0.5,1.6-0.2,3.6-1.3,5.2c-0.7,1.3-2,1.6-3,2.6c-1.3,1.6-1.8,3.3-2.7,4.9c-1.5,2.3-2.5,4.6-4.8,4.6
	c-1.8,0-3.3-0.7-4-2.3c-0.8-1.3-0.5-2.6-0.5-4.2c0.2-1.6,0.7-2.6,1-4c0.3-1.6,0.5-2.9,0.8-4.6c0-2,0.2-3.3,0.2-5.2
	c0-2.3-1-3.6-1-5.6c0-2.3,1-3.3,1-5.6c0-2.3-1.3-3.6-2-5.9c-0.5-2-1.3-3.3-1.5-5.5c0-1.7-0.3-3,0.2-4.3c1-2.3,2.5-2.9,4.3-3.3
	c1-0.7,1.8-0.7,3-0.7c2.5,0,4,0.7,6.3,1.3c4.2,1.3,6,5.5,10.3,5.2c2.3,0,3.5-1,5.8-1.9c1.3-0.3,2.3-1,3.8-1.7c1.3-0.3,2.3-1,3.8-1.3
	c2-0.3,3.5,0.3,5.5,0.7c3.5,0.3,5.5,1.6,9,2.3c2,0.3,3.3,1,5,1.3c3.8,1,6.3,3.3,10,2.9c2-0.3,3.3-1.6,5.2-2.3c1.8-0.3,3-0.3,4.8-1
	c1.5-1,2.2-2.3,3.8-3c1.8-0.7,3.3-0.3,5-0.3c4.8-0.3,7.8-1,12.5-1c2.3,0,3.8-0.3,6.3,0c2,0.3,3.3,1.6,5.3,2.6c2.5,1,4,2.3,6.8,2.3
	c3,0,4.5-1.3,7.2-1.9c2-0.7,3.3-1.3,5-1.6c2.3-0.7,3.8-1,6-1.3c2.2,0,4.3-2,6.3,0c2,2.3,1.3,5.5,1.3,9.2
	C769.2,23.4,768,25.7,766.9,29.6 M100.2,720.2c-0.2,0.7-0.5,1-0.5,1.8c0,0.7,0.7,1.4,0.9,2.2c0.2,0.9,0,1.6,0,2.5
	c0,0.7-0.2,1.2-0.2,1.8c-0.4,2.8,2,4.9,0,7.2c-0.5,0.5-0.9,0.9-1.6,1.3c-2.6,1.4-5.3,0.4-8.5,0.4c-3.9,0.1-6.3,0.4-10.1,0.2
	c-1.1-0.1-1.8-0.2-3-0.2c-2.4,0-3.7,0.2-5.9,0.4c-4.1,0.1-6.6,0-10.7,0c-5.7,0-9,0.4-14.7,0c-1.5-0.1-2.6-0.3-4-0.5
	c-1.5-0.1-2.4-0.5-3.7-0.7c-1.5-0.1-2.6,0-4,0.1c-1.8,0.3-3.1,0.7-5,0.9c-2.4,0.1-4.1-0.1-6.6,0c-2,0-3.3,0.3-5.3,0.3
	c-1.8,0-3.1,0.1-5,0c-1.8-0.1-3.3,0.1-4.8-0.7c-0.9-0.4-1.5-0.8-1.7-1.4c-0.2-0.9,0.7-1.4,1.7-2.1c0.9-0.9,2.2-1.2,3.7-1.8
	c1.5-0.8,2.7-1,4-2c1.3-0.9,2.4-1.6,3-2.7c0.6-1.2,0.4-2,0.6-3.2c0.2-1.9,0-3.1,0.2-5.1c0-0.9-0.2-1.7,0.2-2.6
	c0.4-0.8,1.6-1.2,1.8-2c0.5-1.2,0-2.1-0.4-3.1c-0.4-1.5-1.1-2.2-1.6-3.5c-0.6-1.2-1.1-1.8-1.3-3c-0.4-1.2-0.2-1.9,0-3.1
	c0.2-1.6,0.9-2.5,1.3-3.9c0.4-1.3,0.2-2.2,0.5-3.4c0.2-1,0.6-1.7,0.6-2.6c0-0.7,0.2-1.2-0.2-1.7c-0.2-0.3-0.6-0.4-0.9-0.7
	c-0.9-0.9-0.6-1.8-0.7-3.1c0-1.2,0.2-2,0.6-3.2c0.5-1.6,1.8-2.4,2.2-3.9c0.5-2,0-3.2-0.2-5.1c0-1.3-0.2-2.1-0.2-3.4
	c-0.2-1.2-0.4-2.1-0.5-3.3V663c0.2-0.7,0.2-1.2,0.4-1.9c0-0.9,0.4-1.6,0-2.4c-0.4-0.7-0.9-1-1.5-1.6c-0.6-0.8-0.9-1.4-1.7-2
	c-1.1-1-2.4-1.2-3.8-1.8c-1.1-0.5-2-0.8-3-1.5c-0.9-0.8-1.6-1.4-1.8-2.5c-0.2-0.9-0.4-1.6,0.4-2.4c1.1-0.8,2.6-0.4,4.2-0.4
	c1.6-0.1,2.9,0.1,4.6,0.3c2,0.2,3.1,0.8,5,1c1.8,0.1,3,0,4.6,0c2.6,0,4,0.3,6.4,0.1c2.9-0.2,4.4-1.6,7.3-1.7c1.5,0,2.6,0.3,4.1,0.4
	c1.3,0.1,2.2,0.3,3.5,0.3c1.8,0.1,3-0.7,4.6-0.3c1.1,0.3,2.4,0.4,2.6,1.2c0.2,0.5-0.4,1-0.9,1.6c-0.9,0.9-2.2,1-3.5,1.7
	c-1.3,0.5-2.2,0.9-3.1,1.6c-1.1,0.8-1.8,1.3-2.6,2.4c-0.9,1.2-0.7,2.1-1.5,3.4c-0.6,1-1.5,1.6-1.8,2.7c-0.4,1.2,0.2,2.1,0.4,3.4v4.4
	c-0.2,1.3-0.4,2.4-0.6,3.7c0,1.3,0.2,2.2-0.2,3.5c-0.4,0.8-0.7,1.4-1.1,2.2c-0.6,1-0.9,1.7-1.7,2.6c-0.2,0.3-0.5,0.4-0.7,0.7
	c-0.4,0.9,2.2,0.7,2.9,1.3c0.7,0.5,1.3,1,1.7,1.8c0.2,0.5,0.5,0.8,0.5,1.4c-0.2,0.5-0.9,0.9-1.3,1.5c-0.4,0.9-0.4,1.6-0.5,2.6
	c-0.4,2-0.6,3.2-0.6,5.1c0,2.3-0.7,4.1,0.6,6.3c0.4,1,1.3,1.6,1.8,2.5c0.7,1.7,1.1,2.7,1.1,4.6c0,0.8-0.2,1.2-0.2,2
	c-0.2,0.8,0.2,1.3,0,2.1c-0.4,0.9-1.1,1.4-1.5,2.5c-0.4,1-0.4,1.8-0.4,3c-0.2,1.7-0.7,3,0.4,4.4c0.5,0.7,1.3,1,1.8,1.7
	c0.5,0.7,0.7,1.4,1.5,2.1c1.5,1.5,3.8,1.5,6.4,2c1.8,0.4,3.1,0.4,5.2,0.7c5,0.5,8.1,1.2,13.2,0.8c1.3-0.1,2.2-0.5,3.5-0.5
	c1.1,0,1.8,0.1,2.7,0.2c2.4,0,4.1,0.7,6.3,0c1.7-0.5,2.6-1.3,3.7-2.4c0.9-0.9,1.5-1.7,2-2.7c0.4-0.8,0.6-1.3,0.9-2
	c0.4-0.5,0.7-0.7,1.1-1.3c0.9-1,0.4-2.1,1.5-3.2c1.1-1,2.2-1.8,4.1-1.8c1.7,0.1,3.3,0.5,3.7,1.7
	C101.2,718.8,100.4,719.4,100.2,720.2 M262.9,694.6c-0.5-0.9-1.6-1.4-2.2-2.4c-0.7-1.2-1.1-1.9-0.7-3.1c0.2-0.5,0.6-0.8,0.7-1.3
	c0.2-0.9-0.5-1.6-0.5-2.4c0-1.2,0.2-2,0.2-3c0.2-1.3,0.4-2.2,0.9-3.5c0.5-1,1.5-1.6,1.6-2.5c0.2-1.2-0.2-2-0.9-3
	c-0.7-1.2-1.6-1.9-3.1-2.7c-1.3-0.7-2.4-0.8-3.7-1.3c-2-0.9-3.3-1.6-5-2.9c-1.8-1.4-2.2-2.7-4.1-4.3c-1.7-1.6-3.1-2.4-5.2-3.7
	c-1.5-0.9-2.4-1.4-3.7-2.4c-1.7-0.8-2.8-1.2-4.2-2.2c-1.3-1-1.3-2.4-3-3.1c-1.8-0.9-3.7-0.8-6.1-0.9c-4.2-0.5-7-0.5-11.4,0
	c-2.6,0.3-4.2,0.5-6.6,1.3c-2.4,0.7-3.8,1.3-5.9,2.2c-2.7,1.2-3.9,2.4-6.4,3.7c-0.7,0.2-1.5,0.5-2.2,0.9c-1.1,0.8-1.1,1.6-2,2.4
	c-0.9,1-2.2,1.6-3.1,2.5c-1.3,1-2,1.8-2.7,3c-1.7,2.1-1.8,3.5-3.1,5.9c-0.4,0.9-0.5,1.6-1.3,2.6c-0.9,1.5-2,2.4-3.1,3.7
	c-0.9,1.2-2,1.8-2.6,3.2c-0.6,1-1.1,1.8-0.7,3c0.4,0.8,1.1,1.3,1.8,1.8c0.7,0.7,1.8,0.8,2.4,1.4c0.7,0.9,0.4,1.8,0.4,2.9
	c0,1.7-0.9,2.7-1.1,4.6c-0.2,2.2-0.4,3.7,0,5.9c0.4,2.1,1.5,3.3,1.6,5.3c0.2,1.8-0.4,3-0.1,4.8c0,2.2,0.1,3.7,1.3,5.8
	c1.1,2,2.4,3,4,4.8c0.9,1.1,1.5,1.8,2.6,2.8c2,1.7,3.8,2.4,6.6,3.3c1.6,0.7,2.7,1,4.6,1.3c1.1,0.3,2,0.1,3,0.4
	c0.9,0.2,1.3,0.6,1.8,0.9c1.8,0.9,3.1,1.5,5.3,1.7c2,0.3,3.3-0.2,5.3-0.1c2,0,3.3,0.1,5.2,0.7c1.5,0.4,2.2,1.2,3.7,1.4
	c2.2,0.4,3.9-0.3,6.1-0.7c2-0.4,3.3-0.8,5.1-1.3c1.8-0.5,3-0.8,4.6-1.3c3.3-1,5.1-1.8,8.1-3.3c3.1-1.6,5.2-2.6,7.5-4.6
	c1.8-1.4,3.1-2.4,4.4-4.1c1.6-2.4,1.5-4.2,2.2-6.8c0.7-2.4,0.4-3.9,1.5-6.3c0.4-1.2,1.3-1.7,1.8-2.9c0.7-1.8,1.1-3,1.1-5
	C263.6,696.6,263.4,695.8,262.9,694.6 M287,706.8c-0.5,1.2-1.5,1.8-2.2,2.9c-1.5,2-2.6,3-3.5,5.1c-0.2,0.6,0,1.3-0.7,1.7
	c-0.2,0.2-0.7,0.4-1.1,0.5c-0.9,0.5-1.1,1.3-1.8,2.1c-2.2,2.5-3.5,3.9-6.2,6.2c-4.1,3.3-7.2,4.8-12.3,7.3c-4.6,2.2-7.5,3.4-12.5,5.1
	c-3.3,0.9-5.5,2-9,2.4c-3.8,0.5-6.3-0.1-10.1-0.1c-3.3,0-5.5,0.1-8.9,0.2c-1.3,0.1-2.2,0.4-3.5,0.4c-2.8,0.1-4.6,0.1-7.4-0.4
	c-0.9-0.1-1.7-0.5-2.6-0.7c-1.7-0.1-2.8,0.3-4.4,0.3c-2.9-0.1-4.8-0.4-7.5-1c-2.7-0.5-4.4-1-6.8-2.1c-2.6-1-3.8-2.1-6.1-3.4
	c-1.3-0.9-2.2-1.4-3.9-2.4c-1.1-0.5-2-0.9-3.1-1.6c-2.1-1.3-2.1-2.9-3.5-4.5c-0.9-0.9-1.5-1.6-2.6-2.5c-1.6-1.4-3.7-1.8-5.5-3.4
	c-1.1-1.2-1.7-2.1-2.8-3.3c-1.3-1.4-1.8-2.4-2.9-3.8c-1.8-2.2-4.4-3.4-5-6.1c-0.4-0.9-0.2-1.6-0.4-2.6c0-1.7,0-2.9-0.2-4.7
	c0-1.7,0-2.9-0.2-4.6c-0.2-1.6-0.5-2.6-0.7-4.2c-0.2-1.4-0.4-2.3-0.2-3.8c0.2-1.3,0.7-2.1,1.1-3.4c0.5-1.2,0.9-2.1,1.5-3.3
	c0.7-1.6,1.3-2.5,2.2-3.9c0.9-1.3,1.3-2.2,2.4-3.5c0.4-0.8,0.9-1.3,1.5-1.9c0.9-1,1.3-1.8,2.4-2.9c0.5-0.4,1.3-0.6,1.6-1.3
	c0.6-0.8,0-1.4,0.4-2.2c0.5-1,2-1.4,2.9-2.4c1.7-1.2,2.4-2.2,4.2-3.1c1.1-0.5,1.8-0.8,3-1.3c2.2-1.2,3.1-2.4,5.3-3.4
	c2.4-1.3,4.4-1.7,7.2-2.6c2-0.7,3.1-1.2,5.2-1.7c2-0.5,3.5-0.9,5.7-1.3c2-0.3,3.3-0.3,5.3-0.7s3.1-1,5.3-1.3c2.4-0.2,4,0,6.6,0
	c2.4,0,3.8-0.2,6.3-0.2c2.6-0.1,4.2-0.4,6.8-0.4c2.2,0,3.5,0.1,5.7,0.1c2.2,0.1,3.5,0.3,5.7,0.5c4.8,0.7,7.5,1.8,12,3.3
	c2.6,0.9,4.2,1.5,6.4,2.5c3.1,1.4,5,2.6,7.5,4.7c1.6,1.3,2.2,2.4,3.8,3.7c1.8,1.6,3.1,2.5,5.2,3.8c1.5,1,2.7,1.6,4.1,2.7
	c1.1,0.9,1.5,1.7,2.4,2.6c2.6,3,4.6,4.4,6.6,7.6c0.7,1.3,1.1,1.6,1.8,3.4c0.4,1.3,0.7,2.1,0.7,3.4c-0.2,1.3-0.7,2.1-0.9,3.3
	c-0.4,1.2-0.9,2-0.7,3.3c0.2,1.3,1.3,2,1.6,3.3c0.4,1.6,0,2.6,0,4.2v3.8C288.1,703.3,288.1,704.7,287,706.8 M432.8,687.3
	c-0.2-1-0.7-1.7-1.1-2.7c-0.4-1-0.7-1.7-1.1-2.9c-0.6-1.4-0.4-2.5-0.9-3.9c-0.6-1.7-1.3-2.7-2.4-4.3c-0.5-1-1.3-1.7-2-2.7
	c-0.4-0.7-0.6-1.3-1.1-2c-0.6-0.5-1.1-0.6-1.7-1.2c-0.4-0.5-0.5-1-0.9-1.6c-0.4-0.7-0.7-1.2-1.3-1.8c-1.1-0.9-2.4-1.3-3.7-2
	c-3-1.4-5-2-7.7-3.4c-2.2-1-3.1-2.2-5.3-3.3c-1.1-0.5-2-0.9-3.3-1.3c-1.7-0.4-3.1-0.5-5-0.7c-2,0-3.5,0.2-5.5,0.2H386
	c-1.5-0.1-2.4-0.4-3.7-0.5c-1.1-0.1-1.8-0.5-2.8-0.4c-0.9,0.1-1.3,0.7-2,0.9c-0.9,0.1-1.6-0.1-2.6,0.1c-1.1,0.3-1.7,0.9-2.4,1.6
	c-0.7,0.8-1.3,1.4-2,2.4c-0.4,0.5-0.9,1-1.1,1.6c-0.5,0.9-0.7,1.7-0.5,2.7c0.2,0.9,1.1,1.4,1.5,2.4c0.4,0.9,0.7,1.7,0.9,2.7
	c0.4,2-0.4,3.1-0.6,5.1c0,0.9,0,1.7-0.2,2.7c-0.2,0.9-0.6,1.7-0.9,2.6c-0.2,0.5-0.5,1-0.9,1.6c-0.5,0.9-1.8,1-2,1.9
	c-0.2,1,0.4,1.7,1.1,2.5c0.7,0.8,2,0.8,2.6,1.4c0.5,0.7,0.5,1.3,0.7,2.1v2.7c-0.2,1-0.4,1.8-0.5,2.9c-0.2,1.3-0.6,2.1-0.7,3.5
	c0,1.8,0.4,3,0.7,4.7c0.2,1,1.1,1.7,0.9,2.9c0,0.9-0.6,1.5-1.1,2.2c-0.6,0.7-1.3,0.9-1.7,1.7c-0.5,0.9-0.7,1.7-0.2,2.6
	c0.6,0.8,2,0.7,2.8,1.3c0.7,0.8,1.3,1.4,1.3,2.3c0.2,0.9-0.2,1.5-0.4,2.2c-0.2,0.5-0.4,1-0.6,1.6c0,0.8,0.2,1.3,0,2.1
	c0,1-0.9,1.7-1.1,2.7c-0.2,1.2-0.2,2.1,0,3.3c0.2,1,0,1.8,0.7,2.7c0.9,1.2,2,1.4,3.7,2c2.4,0.9,4.2,0.8,6.8,1c4.1,0.2,6.6,0,10.7,0
	c2.4,0,3.8,0,6.3-0.1c1.8-0.1,2.9-0.3,4.8-0.7c2-0.5,3.3-1.2,5.2-2.2c2.9-1.5,4.4-2.7,6.4-4.9c1.3-1.3,2-2.3,3.3-3.8
	c2.2-2.5,4.8-3.7,6.1-6.6c0.6-1.2,0.6-2,0.9-3c0.7-1.3,1.5-2.1,2.4-3.3c0.6-0.8,1.3-1.2,1.7-2c0.4-1.2-0.2-2,0-3.2
	c0.2-1.9,1.1-3,1.8-4.8c0.6-1.8,1.7-2.9,2-4.8C433.7,690.7,433.5,689.4,432.8,687.3 M451.9,699.6c-0.2,0.9-0.4,1.6-0.5,2.4
	c-0.2,1.6,0,2.6,0,4.3c0,1.5,0.5,2.4,0,3.7c-0.6,1.3-1.7,1.8-2.8,3c-0.7,0.8-1.5,1.2-2,2c-0.7,1.2-0.4,2.2-1.1,3.3
	c-1.5,2-4.1,2.2-5.9,3.8c-0.9,0.6-1.3,1.3-2.4,1.9c-0.7,0.4-1.3,0.5-2,0.9c-1.7,1.1-1.3,2.6-3,3.3c-1.1,0.5-2,0.4-3.1,0.7
	c-2.4,0.9-2.2,3-4.8,3.8c-1.1,0.4-1.8,0.3-3,0.7c-0.9,0.4-1.5,0.9-2.4,1.3c-1.8,0.8-3.5,0.7-5.7,1c-1.5,0.3-2.6,0.4-4.1,0.8
	c-2.2,0.4-3.5,1-5.5,1.5c-4.6,0.8-7.7,0-12.7,0c-4.2,0-6.8,0.2-11.1,0c-2.6-0.1-4.4-0.8-7-0.9c-3-0.1-4.6,0.2-7.3,0.1
	c-1.8-0.1-3.1-0.5-5-0.7c-1.8-0.1-3-0.3-4.6-0.1c-2.6,0-3.9,0.5-6.3,0.8c-1.5,0.1-2.2,0.3-3.7,0.3c-1.7,0.1-2.8-0.1-4.4-0.1
	c-1.5,0-2.8,0.8-3.9,0.1c-1.1-0.5-0.9-1.6-0.7-2.6c0.2-1.3,1.3-2.1,2.6-3c1.6-1.3,3.8-1,5.5-2.4c1.1-0.9,1.7-1.7,2.2-2.7
	c2.2-3.3,2.2-5.8,2.2-9.3c-0.2-1.8-0.7-2.9-0.7-4.6c-0.2-1.4,0.6-2.4,0-3.8c-0.5-1-2.4-1.4-2.6-2.6c-0.2-1,0.2-1.8,0.9-2.7
	c0.7-0.8,1.8-1,2.6-1.8c0.6-0.7,0.9-1.3,1.1-2.2c0.2-1.1,0-1.7-0.2-2.6c-0.4-1.3-1.7-2-1.8-3.3c-0.4-1.6,0.6-2.6,0.7-4.1
	c0.2-1.7,0.5-2.9,0.2-4.4c-0.2-0.8-0.9-1.3-1.1-2.2c-0.6-1.7-0.4-2.7-0.4-4.4c0.2-2.2,1.3-3.5,1.6-5.8c0.2-1,0.7-2,0.6-3
	c-0.2-1-1.3-1.6-1.5-2.5c-0.2-1.3,0.7-2.1,0.9-3.4c0.2-1,0.4-1.7,0.2-2.6c-0.2-1-0.9-1.7-1.3-2.6c-0.4-0.9,0.2-1.6-0.5-2.5
	c-0.4-0.5-1.1-0.8-1.8-1.3c-1.3-0.9-1.8-1.8-3.3-2.6c-1.1-0.5-2-0.9-3.3-1.3c-1.1-0.3-2.2,0.1-3-0.4c-0.9-0.8-0.9-2,0-2.9
	c0.7-0.7,1.8-0.7,3.1-0.9c2.2-0.4,3.7-0.2,5.9,0c1.7,0.1,2.6,0.8,4.2,0.9c2.8,0.4,4.4,0.1,7.2,0c2.6,0,4.2-0.4,6.6-0.7
	c3.5-0.1,5.5-0.4,9-0.3c2.2,0.1,3.7,0.4,5.9,0.7c2.4,0.3,3.8,0.8,6.2,0.8c3.1,0.1,5.2-0.8,8.3-0.9c3.5-0.1,5.9-0.1,9.4,0.3
	c3.9,0.5,6.1,1.3,9.6,2.5c2.4,0.8,3.5,1.6,5.7,2.5c2.8,1.1,4.8,1.3,7.4,2.6c2.7,1.2,3.9,2.5,6.3,3.9c3.5,2,6.1,2.9,9.2,5.1
	c2.6,1.9,4.2,3.3,6.1,5.6c2.2,2.5,2.7,4.3,4,7.2c0.6,1.5,1.1,2.4,1.5,3.9c0.9,2.9,0.4,10.6,0.4,7.6c0-2.4,0.2,3.8,0,6.1
	C452.6,696.6,452.1,697.7,451.9,699.6 M624.7,714.4c-0.7,1-1.8,1.3-2.8,2.1c-0.9,0.8-1.5,1.2-2,1.9c-0.9,1.3-0.6,2.2-0.7,3.7
	c-0.4,2.4-0.4,3.8,0,6.1c0.2,1.3,0.7,2.1,0.9,3.3c0,1,0.7,1.8,0,2.6c-0.9,1-2.4,0.9-3.9,1.2c-1.7,0.3-2.6,0.3-4.2,0.5
	c-3.5,0.4-5.7,1.2-9.4,1.6c-1.8,0.3-3,0.5-5,0.5c-1.6,0-2.7-0.1-4.4-0.1c-1.5,0-2.4-0.1-3.8,0.1c-1.1,0.1-1.6,0.5-2.8,0.8
	c-2.4,0.7-4,0.9-6.6,1h-4.2c-3.3,0-5.5,0.4-8.8,0.4c-3.8,0.1-6.3,0.5-9.9,0c-1.5-0.1-2.4-0.4-3.8-0.7c-2-0.3-3.3-0.5-5.3-1
	c-1.7-0.5-2.8-1.2-4.4-1.8c-2.6-1-4.2-1.6-6.8-2.6c-1.5-0.7-2.8-1-4.1-2c-0.7-0.5-1.1-1-1.8-1.6c-1.1-0.9-2-1.3-3.3-2
	c-1.6-1-2.7-1.6-4.2-2.6c-1.5-0.9-2.4-1.6-3.5-2.5c-1.3-1-2.2-1.8-3.3-3c-1.6-1.8-3.1-3.1-3.9-5.4c-0.2-0.5-0.2-1-0.4-1.6
	c-0.4-1.2-1.1-1.7-1.6-2.8c-0.6-0.9-0.9-1.7-1.5-2.6c-0.5-1.3-1.3-2.1-1.8-3.4c-0.4-1.4-0.4-2.5-0.4-3.9v-2.4c0-1.4,0-2.5-0.2-3.9
	c-0.2-1.3-0.7-2.1-0.9-3.4c-0.2-1.6-0.4-2.6,0-4.1c0.2-1.2,0.6-1.8,0.9-2.9c0.4-1.6,0.7-2.5,1.5-3.9c0.4-0.7,0.7-1,0.9-1.7
	c0.7-1.6-0.2-2.8,0.6-4.5c0.2-0.7,0.7-1.2,1.1-1.9c0.5-0.9,0.4-1.8,0.9-2.7c0.7-0.9,1.6-1.5,2.6-2.2c0.9-0.9,1.5-1.6,2.2-2.5
	c0.9-1,1.3-1.8,2.4-2.7c0.6-0.5,1.1-0.8,1.7-1.2c1.3-1,2-1.7,3.3-2.7c1.1-0.8,1.8-1.3,2.7-2c1.5-0.8,2.4-1.3,4.1-2.1
	c2-1,3.3-1.6,5.5-2.5c2.6-1.2,4.2-2.1,7.2-2.9c2.4-0.8,4-0.9,6.6-1.3c1.8-0.3,3.1-0.3,4.6-0.7c1.5-0.5,2.1-1.4,3.5-1.7
	c1.3-0.3,2.2,0,3.5,0c1.8,0,3.1-0.3,5-0.3c5.7-0.2,8.8-0.2,14.5,0c2,0,3.5,0.1,5.7,0.3c3.1,0.3,5,0.7,8.1,1.3
	c2.8,0.7,4.1,1.6,6.8,2.4c1.1,0.3,1.8,0.5,2.9,0.8c1.5,0.4,2.4,0.8,3.7,1.2c2.6,0.7,4.2,0.8,6.6,1.6c1.7,0.5,3.1,0.5,4.2,1.4
	c0.5,0.7,0.7,1.2,1.1,2c0.5,1.6,0,2.6,0,4.1c0,2,0.4,3,0.4,5c0,1.8-0.4,3-0.5,4.8c-0.2,1.2,0,1.9-0.4,3.1c-0.2,0.8,0,1.7-1.1,2.1
	c-1.3,0.5-2.6-0.1-3.9-0.7c-1.3-0.5-1.8-1.2-2.7-2c-1.5-1.2-2.9-1.8-4.1-3.3c-0.9-1-0.9-1.9-1.6-3.1c-0.5-0.8-1.1-1.3-1.8-2.1
	c-0.7-0.8-1.5-1.2-2-1.9c-0.5-0.7-0.2-1.3-0.9-2c-0.9-0.7-2.4-0.4-3.7-0.8c-0.7-0.1-1.3-0.4-2-0.7c-1.8-0.5-2.9-0.9-4.6-1.4
	c-1.3-0.3-2-0.5-3.3-0.8c-3-0.7-5-0.5-8.1-0.8c-1.7-0.3-2.8-0.5-4.6-0.7c-1.7-0.3-3-0.1-4.6-0.4c-1.8-0.1-2.7-0.5-4.4-0.8
	c-1.5-0.3-2.4-0.7-3.8-0.5c-1.3,0.1-2,0.5-3.3,0.8c-0.9,0.3-1.7,0.4-2.8,0.7c-1.8,0.5-3.1,1.2-4.8,1.8c-1.3,0.5-2.2,1-3.5,1.7
	c-1.5,0.7-2.2,1.5-3.7,2c-0.5,0.3-1.3,0.4-1.8,0.7c-0.9,0.5-1.3,1.2-1.8,1.8c-1.1,1.3-1.3,2.2-2.2,3.4c-0.7,1-0.9,1.8-2,2.6
	c-0.5,0.5-1.5,0.7-1.8,1.2c-0.5,0.8,0.2,1.6,0,2.5c-0.2,1-0.9,1.6-1.1,2.6c-0.4,0.9-0.4,1.6-0.7,2.5c-0.4,0.7-0.7,1-1.1,1.7
	c-0.6,0.8-1.3,1.2-1.7,1.8c-0.4,0.5-0.5,0.9-0.7,1.5c-0.2,0.9,0,1.4,0.2,2.4c0.2,0.6,0.5,1.2,0.7,1.8c0.2,1,0.2,1.8,0.2,2.9
	c0.2,1.2,0.2,2,0.4,3.3c0,1.7-0.7,2.7,0,4.3c0.2,0.7,0.9,1,0.9,1.7c0,0.8-0.9,1.3-1.3,2.1c-0.2,1-0.6,1.8,0,2.7
	c0.4,0.5,0.9,0.7,1.3,1c0.5,0.8,0,1.6,0.2,2.5c0.2,1,0.6,1.7,0.7,2.7c0.2,1,0,1.8,0.4,2.9c0.4,0.9,0.7,1.6,1.1,2.5
	c0.4,0.8,0.7,1.5,1.3,2.2c0.4,1,0.9,1.7,1.5,2.6c1.1,1.4,2,2.2,3.1,3.4c0.9,0.9,1.5,1.6,2.6,2.4c2.2,1.4,4,1.7,6.6,2.6
	c3.3,1,5.3,1.5,8.8,2.1c4.6,0.9,7.5,1.3,12.3,1.7c2.8,0.1,4.4,0.3,7.2,0.3c5,0,9,0.9,12.9-1.4c1.3-0.9,2-1.7,3-2.7
	c0.9-1.2,1.5-2,2-3.1c0.7-1.5,1.1-2.4,1.1-3.8c0.2-1.5-0.4-2.5-0.9-3.9c-0.4-1.3-0.2-2.5-1.5-3.4c-0.9-0.7-1.8-0.8-3.1-1.2
	c-1.8-0.5-3.3-0.4-5.5-0.8c-1.1-0.1-2-0.1-3-0.7c-0.9-0.5-1.7-1.2-1.7-2.1c0.2-0.9,1.1-1.6,2.4-2c1.6-0.5,4.8-0.2,7.7-0.2
	c2.9,0,4.6,0,7.3,0.1c2.4,0,3.7,0.2,6.1,0.2c1.5,0,2.4-0.1,3.8-0.1c3.1-0.1,5-0.1,8.3-0.1c2.4,0,4.1-0.3,6.4,0.1
	c1.1,0.3,2,0.3,2.7,0.8c1.1,1,0,2.2,0,3.5C625.2,712.4,625.4,713.3,624.7,714.4 M763.6,663.6c-0.7,0.4-1.5,0.5-2.4,0.5
	c-2.2,0-3.3-1.6-4.6-2.9c-0.9-1-0.7-2.1-1.8-3.1c-1.5-1.3-3.3-1.5-5.5-2.2c-3.7-1.4-5.7-2.7-9.8-3.4c-1.5-0.3-2.6-0.5-4-0.5
	c-1.5,0-2.4,0.2-3.7,0.5c-1.3,0.1-1.8,0.7-3.1,0.7c-1.6,0-2.2-1-3.8-1.6c-2-0.5-3.5-0.8-5.7-0.9c-1.6-0.1-2.7-0.3-4.4,0
	c-1.5,0.3-2.6,0.5-3.7,1.3c-1.1,0.9-1.3,1.7-1.3,2.9c-0.2,1.6,1.1,2.4,1.5,3.8c0.6,1.3,0.9,2.1,0.7,3.5c0,1.4-0.7,2.4-1.3,3.8
	c-0.6,1.3-1.8,2-1.8,3.4c-0.2,1.2,0.4,1.8,0.9,3c0.2,0.8,0.9,1.3,1.1,2.1c0.4,1.2,0.4,2,0.2,3.1c0,1-0.7,1.7-0.9,2.7
	c-0.2,1.2,0,2.1,0.2,3.3c0.2,0.9,0,1.8,0.9,2.5c0.9,0.7,1.8,0.7,3.1,0.9c0.7,0,1.3,0.1,2.2,0.1c2,0,3.3-0.1,5.3-0.5
	c1.8-0.4,2.7-1,4.6-1.6c1.1-0.3,2-0.4,3-0.8c1.8-0.8,1.8-2.1,3-3.3c1.5-1.3,2-3,4.4-3.2c1.1,0,2,0.1,3,0.5c1.8,0.9,0.9,2.6,0.9,4.2
	c0,1.3,0,2.2-0.4,3.4c-0.4,0.9-1.1,1.4-1.5,2.4c-0.5,1.8,0.9,3,1.3,4.8c0.4,3,0.9,5,0.4,7.8c-0.2,1.3-1.7,2.1-3.5,2.4
	c-2.2,0.1-3.3-1.2-4.8-2.5c-1.1-1-0.7-2.2-2-3.1c-1.3-0.8-2.6-0.8-4.2-1.2c-1.5-0.2-2.4-0.4-3.9-0.8c-2.2-0.7-3.1-1.8-5.3-2.5
	c-2-0.5-3.5-1.1-5.7-0.9c-1.5,0.1-2.9,0.1-3.7,0.9c-0.6,0.8-0.4,1.4-0.2,2.4c0.2,1,1.1,1.7,1.6,2.7c0.5,1.4,0.9,2.5,0.9,4.1
	c-0.2,1.6-0.6,2.5-1.3,3.9c-0.4,1-1.3,1.6-1.3,2.6c0,0.9,0.5,1.4,0.7,2.2c0.2,0.9,0,1.6,0.2,2.5c0.2,1,1.1,1.6,1.1,2.6
	c0.2,1-0.5,1.7-0.7,2.7c-0.2,1.2-0.4,1.8-0.4,3c0,1.3,0.4,2.1,0.7,3.4c0.2,1.2,0.2,2.1,1.1,3.2c0.7,1,1.7,1.6,3,2.2
	c1.3,0.8,2.2,1.4,3.8,1.8c2.4,0.7,4.1,0.5,6.4,0.5c2.6-0.1,4.2-0.4,6.4-1c1.1-0.2,1.6-0.5,2.8-0.8c1.6-0.3,2.9,0.1,4.6-0.1
	c1.8-0.2,3.1-0.5,4.6-1.2c2.2-0.9,3-2,4.6-3.4c0.6-0.5,1.1-0.9,1.7-1.4c0.7-1,0.7-2,1.3-3.2c1.3-2.1,1.6-3.8,4.4-5
	c1.3-0.4,2.2-0.9,3.7-0.8c0.9,0.1,1.7,0.5,2.2,1c1.3,0.9,0.4,2.1,0.5,3.4c0,0.8,0.6,1.4,0.2,2.2c-0.2,0.9-1.5,1.2-1.8,2
	c-0.5,1.2,0,2.1,0.2,3.3c0.4,1.3,1.1,2.1,1.3,3.3c0,1.5,0,2.4-0.7,3.7c-0.7,1.3-1.5,2.2-3.3,2.9c-2.4,1-4.4,0.1-7,0
	c-2,0-3.3-0.3-5.2-0.3c-3.1-0.1-5,0-8.1,0c-3.9,0-6.3-0.1-10,0.1c-2,0.1-3.5,0.5-5.5,0.5c-2.2,0-3.7-0.5-5.7-0.7
	c-3-0.3-4.8-0.3-7.7-0.4c-2.2,0-3.7-0.1-6.1-0.1c-2.6,0-4.2,0.4-6.8,0.5c-6.2,0.3-11.4,0-16.2,0c-4.6,0-5.3-0.3-5.5-2
	c0-0.8,0.4-1.3,0.9-2c0.9-1,2.6-1,4.2-1.7c1.7-0.7,2.8-1,4.2-2c1.5-0.8,2.4-1.3,3.3-2.4c0.9-1.3,0.9-2.2,1.1-3.6
	c0.4-1.3,0.4-2.2,0.6-3.5c0-1.6,0-2.5,0.2-3.9c0.2-2.5,0.5-4.1,0.4-6.4c0-0.9-0.4-1.7-0.4-2.7c0-1.6,0.9-2.5,0.9-4.1
	c0-1.3-0.6-2.1-0.7-3.3c-0.2-1.7-0.7-2.9,0.2-4.4c0.6-0.9,1.8-1.2,2.2-2.1c0.4-0.9,0-1.7-0.4-2.6c-0.4-1.2-2-1.6-2.2-2.7
	c-0.2-0.9,0.2-1.4,0.4-2.4c0.2-0.7,0.7-1,0.7-1.7c0-0.9-0.7-1.4-0.9-2.4c-0.2-1.4,0.5-2.4,0.9-3.9c0.4-1.3,0.5-2.2,1.1-3.5
	c0.7-1.3,1.8-2.1,2.2-3.4c0.2-1.6-0.2-2.5-0.6-3.9c-0.2-1.2-0.5-1.8-0.9-3c-0.4-1.8-0.4-3-0.9-4.8c-0.2-1-0.2-1.8-0.9-2.7
	c-0.9-1.2-2.2-1.4-3.7-2.4c-2-1.2-3.7-1.8-5.7-3c-1.5-0.9-3.5-1.2-3.7-2.5c-0.2-0.9,0.5-1.6,1.3-2.4c1.1-0.7,3.5-0.7,5.5-0.7
	s3.1,0.4,5.2,0.5c2.2,0.2,3.5,0.4,5.7,0.7c2.4,0.4,3.8,1.2,6.3,1.2c1.8,0,2.7-0.4,4.6-0.7c1.7-0.3,2.8-0.8,4.4-0.8
	c2-0.1,3.1,0.3,5.2,0.3c1.6,0,2.9-0.1,4.6-0.3c2.6-0.3,4.2-0.8,6.8-0.9c2.6,0,4.1,0.4,6.4,0.5c2,0.1,3.3,0,5.2,0.1
	c2.2,0.3,3.3,1,5.3,1.2c1.5,0,2.2-0.1,3.5-0.1c1.6-0.1,2.7-0.4,4.4-0.4c2,0,3.5,0,5.5,0.4c2.7,0.4,4.6,0.8,6.6,2.1
	c0.9,0.5,1.5,1,2,1.8c1.3,1.6,0.7,2.9,0.9,4.7c0.4,1.6,0.9,2.5,0.7,4C764.7,661.5,765.3,662.9,763.6,663.6"/>
</svg>
