<?xml version="1.0" encoding="utf-8"?>
<!-- Generator: Adobe Illustrator 23.0.3, SVG Export Plug-In . SVG Version: 6.00 Build 0)  -->
<svg version="1.1" id="Your_Design" xmlns="http://www.w3.org/2000/svg" xmlns:xlink="http://www.w3.org/1999/xlink" x="0px"
	 y="0px" viewBox="0 0 507 375.8" style="enable-background:new 0 0 507 375.8;" xml:space="preserve">
<style type="text/css">
	.st0{fill:#0593C5;}
	.st1{fill:#003241;}
	.st2{fill:#013240;}
	.st3{fill:#0692C8;}
</style>
<g id="wings">
	<path class="st0" d="M197.4,252.2l-3.6-3.3c3.6-6-1.1-3.9-1.1-3.9l-9.5-10.1c0.7-1.1,0.8-2.4,0.1-3.6l-7.9-14.8h-0.2
		c-1-4.1-2.4-8.7-3-11c7.1-2.2,10.1-9.2,8-13.9c22.6,0.8-8.4-27.3-8.4-27.3h-0.2l-43.4-61.2c0,0-24.4-10.8-52.9-66.1
		c0,0-2.9,43.8,21.4,78.8c-26.6-25-55.9-61.9-80-115.6c0,0,13.3,114.9,90.7,164.7C69.6,147.4,28,119.3,0,74.8
		c0,0,17.3,90.1,98.8,121.3C62.3,191.6,28,176.6,0,152.7c25,51.8,63.1,72.4,110.1,76.1c-26.8,5.6-54.5,6.2-81.6,1.8
		c0,0,39.5,44,109.7,26C109.7,280.3,66,288.7,66,288.7s46.1,21.9,91.9-5.5c-9,15.8-19.8,30.4-32.1,43.7
		C203.2,322.9,197.4,252.2,197.4,252.2z M309.8,252.2l3.6-3.3c-3.6-6,1.1-3.9,1.1-3.9l9.4-10.1c-0.7-1.1-0.8-2.4-0.1-3.6l7.9-14.8
		h0.2c1-4.1,2.4-8.7,3-11c-7.1-2.2-10.1-9.2-8-13.9c-22.6,0.8,8.5-27.3,8.5-27.3h0.2l43.3-61.2c0,0,24.3-10.9,52.7-66.2
		c0,0,2.9,43.8-21.2,78.8C437,90.6,466.2,53.7,490.2,0c0,0-13.2,114.9-90.5,164.7c37.9-17.4,79.4-45.6,107.3-90.1
		c0,0-17.2,90.2-98.8,121.4c36.5-4.4,70.9-19.6,98.8-43.5c-25,51.8-63,72.4-110,76.3c26.9,5.6,54.5,6.2,81.6,1.7
		c0,0-39.4,44-109.7,26.2c28.6,23.5,72.3,32,72.3,32s-46.1,22-91.9-5.4c9,15.7,19.9,30.4,32.3,43.6
		C304.1,322.9,309.8,252.2,309.8,252.2z"/>
	<path class="st1" d="M196.4,251l-11-12.8l-5.7-20l14.8-31.9l-25.7-32.8l-12.4-3.3c-10.9,6.7-33.4-21.4-33.4-21.4
		c14.8,31.4,40.5,34.2,40.5,34.2l10,11.2c0,0-55.8-10.2-69.6-63.5c0,0-10.4,46.2,68.2,80.9c0,0-61-6.1-99.2-91.3
		c0,0,0.5,89.9,94.1,113.7c0,0-68.8-6.3-103.7-82.7c0,0,5.3,99.4,111.1,102c0,0-37.6,13.1-96.7-30.2c0,0,43.4,67.5,104.6,41.8
		c0,0-25.9,21.4-91.2-2.4c0,0,39.1,40,100.5,16.1c0,0-22.4,18.1-66.7,9.6c0,0,38.1,22.4,72.4-2.4L196.4,251z M310.8,251l10.9-12.8
		l5.7-20l-14.8-31.9l25.7-32.9l12.4-3.3c11,6.7,33.3-21.4,33.3-21.4c-14.8,31.5-40.5,34.4-40.5,34.4l-10,11.2
		c0,0,55.7-10.3,69.5-63.5c0,0,10.5,46.1-68.1,80.9c0,0,61-6.2,99-91.4c0,0-0.4,89.9-94.1,113.8c0,0,68.8-6.4,103.5-82.9
		c0,0-5.2,99.5-110.9,102.1c0,0,37.6,13.1,96.7-30.3c0,0-43.3,67.6-104.5,42c0,0,25.9,21.4,91.2-2.4c0,0-39,40-100.5,16.2
		c0,0,22.4,18.1,66.7,9.4c0,0-38.1,22.4-72.4-2.4L310.8,251z"/>
	<path class="st2" d="M199.4,249.9c0,0-14.5-14.7-15.1-28.5s15.1-18.2,15.9-30.2s-34.9-45-50.3-61.2s-33.8-57.5-37.6-57.8
		c-3.9-0.3,6.2,32.1,11.8,43.6c5.6,11.5,44.7,53.9,45.2,67s-5.6,22.6-5.8,30.2c-0.3,7.6,24.6,44.7,34.4,55.6L199.4,249.9z
		 M307.8,249.8c0,0,14.5-14.8,15-28.5s-15.1-18.1-15.9-30.2s34.8-45,50.2-61.2c15.3-16.2,33.7-57.6,37.6-57.8s-6.1,32.1-11.8,43.6
		c-5.6,11.5-44.7,53.9-45.2,67.1c-0.5,13.1,5.6,22.6,5.9,30.2s-24.5,44.7-34.3,55.6L307.8,249.8z"/>
</g>
<g id="shield">
	<path class="st3" d="M310.5,239.5c-10.3-5.9-21.3-10.4-32.9-13.4c0.1-8.1,3.8-15.7,10.1-21.2c0,0-19.5-15.7-34-15.7
		c-14.5,0-34,15.7-34,15.7c6.3,5.4,9.9,13.1,9.9,21.2c-11.5,3-22.6,7.6-32.8,13.5c0.4,40.2,5.4,65.1,15,79.4
		c9.7,14.2,19.5,15.1,29.6,21.8c6.1,4,10.4,10,12.4,16.8c1.9-6.8,6.3-12.7,12.4-16.8c10.1-6.7,19.9-7.6,29.6-21.8
		C305.5,304.6,310,279.7,310.5,239.5z"/>
	<path class="st2" d="M310.7,239.3c-10.1-5.9-21.1-10.5-32.5-13.5c0-8,3.6-15.6,9.9-21c0,0-19.7-15.9-34.3-15.9
		c-14.5,0-34.2,16-34.2,16c6.3,5.3,9.9,12.9,9.9,20.9c-11.7,3-22.8,7.6-33,13.6c0.4,40.2,5.4,65.4,15,79.6c1.5,2.1,3.1,4.2,4.9,6
		c-11.9-4-18.9-2.4-23.1,0c-3.9,2.5-6.1,6.9-5.7,11.4c0.5,2.8,1.8,5.4,3.6,7.6c1.2,1.1,3.9,0.2,3.9,0.2s-2.5-0.9-2.6-2.4
		c-0.2-1.5,2.1-1.9,2.9-3.3c0.8-1.4-0.4-1.9-0.6-4.1c-0.2-1.2,0.1-2.4,0.9-3.3c-0.3,1.2,0,2.5,1.1,3.4c3.9-10,13.3-7.3,13.3-7.3
		s-8.2,0.9-11.2,5.5s0,10.5,0,10.5c1.4-1.5,2.5-0.5,4.4-2.4c2-1.8,0-3.3,1.9-6.7s3.7-2.8,3.7-2.8c-4.8,5.1-2.5,7.4-2.5,7.4
		c5.2-9.4,3.6-1,3.6-1c4.9-9.2,8.2-7.1,8.2-7.1c-2.5,2.1-4.5,4.7-5.9,7.7c1.2-0.5,2.4-0.6,3.6-0.4c1.9,0.6,2.6,2.7,8.5,0.8
		c3.3-1.2,6.8-1.3,10.2-0.3c-3.6,0.1-7,0.9-10.3,2.2c2.5-0.5,7,1.8,7,1.8l-1.3,2.2c4.1-0.7,8.3,0.2,11.7,2.4
		c6.5,3.7,10.1,14.1,6.6,19.7c-2.4,4.4-8.1,6.1-12.7,3.8c-0.1-0.1-0.3-0.1-0.4-0.2c-2.4-1.5-4-4.1-4-6.9c-0.9,1.4-1.6,3-1.8,4.7
		c-1.8-2.4-2.3-5.5-1.2-8.3c1.3-2.4,5.1-2,5.1-2c-0.6-1.5-2.2-2.3-3.9-2c6.4-2.4,6.8,4.9,5.7,5.8c-1.2,0.9-3-1.6-3-1.6
		c-0.6,1.8,2,4.3,4.9,3.6s2.6-6.3,2.6-6.3c1.9,0.3,1.4,4.5,1.4,4.5s0.9,0,2.1-1.8c1.2-1.8-0.2-4.9-0.2-4.9c0.7-0.9,1.4-1.9,1.7-2.9
		c0.1-0.7-0.4-1.4-1.2-1.5c0,0,0,0.9-1.2,0.3c-1.2-0.6-2.3-2.2-4.6-2.4c-5.1-0.6-13.6,6.2-13.6,6.2c1.8-5,9.9-8.2,9.9-8.2
		c-2.3-0.9-7.8,1.4-7.8,1.4s-0.5-2.4-1.5-2.7c-0.9-0.3-2.5,0.7-2.5,0.7s1.8,1.4,1.5,2.7c-2.1,4-2.9,8.5-2.5,13
		c0.6,7.9,7.9,11.6,12.4,13.2c9.9,3.6,18-4.4,20.2-12.7c2.2,8.3,10.4,16.3,20.2,12.6c4.5-1.7,11.7-5.4,12.4-13.2
		c0.5-4.5-0.4-9-2.5-13c-0.3-1.2,1.5-2.7,1.5-2.7s-1.5-1-2.5-0.7c-1,0.4-1.5,2.7-1.5,2.7s-5.6-2.4-8-1.5c0,0,8,3.2,9.9,8.2
		c0,0-8.4-6.8-13.6-6.2c-2.3,0.3-3.5,1.8-4.6,2.4c-1.2,0.6-1.2-0.3-1.2-0.3c-0.7,0.2-1.2,0.8-1.2,1.5c0.3,1.1,0.9,2.1,1.7,2.9
		c0,0-1.3,3.2-0.2,4.9c1,1.7,2,1.8,2,1.8s-0.5-4.3,1.4-4.5c0,0-0.3,5.5,2.6,6.3c2.9,0.7,5.6-1.8,4.9-3.6c0,0-1.9,2.6-3,1.6
		c-1.2-0.9-0.8-8.3,5.7-5.9c-1.6-0.3-3.3,0.6-3.8,2c0,0,3.9-0.3,5.2,2c1,2.8,0.6,5.9-1.2,8.3c-0.2-1.7-0.8-3.3-1.8-4.7
		c0,2.8-1.6,5.4-4,6.9c-4.5,2.5-10.3,1.1-12.9-3.2c-0.1-0.1-0.2-0.3-0.2-0.4c-3.5-5.7,0-16,6.5-19.7c3.5-2.2,7.7-3,11.7-2.4
		l-1.3-2.2c0,0,4.4-2.4,7-1.8c-3.3-1.4-6.7-2.1-10.3-2.2c3.4-0.9,6.9-0.8,10.2,0.3c5.9,1.9,6.7-0.2,8.5-0.8c1.3-0.2,2.5-0.1,3.6,0.4
		c-1.4-2.9-3.4-5.5-5.9-7.7c0,0,3.2-2,8.2,7.1c0,0-1.7-8.4,3.6,1c0,0,2.5-2.4-2.3-7.4c0,0,1.7-0.5,3.7,2.8s0,4.7,1.9,6.7
		c1.9,2,3,1,4.4,2.4c0,0,2.9-5.9,0-10.5c-2.9-4.6-11.2-5.5-11.2-5.5s9.3-2.7,13.3,7.3c0.9-0.9,1.4-2.2,1-3.4
		c0.7,0.9,1.2,2.2,0.9,3.3c-0.2,2.4-1.4,2.8-0.6,4.1c0.7,1.3,3.1,1.8,2.9,3.2c-0.3,1.5-2.6,2.4-2.6,2.4s2.8,0.9,3.9-0.2
		c1.8-2.3,3-4.9,3.6-7.6c0.4-4.5-1.7-8.8-5.7-11.4c-4.1-2.5-11-4-22.7-0.2c1.7-1.8,3.3-3.8,4.7-5.9
		C305.5,304.6,310.3,279.5,310.7,239.3z M305.5,243.5c0,0,0.4,41.7-8.7,63.7c-7.8,18.4-20.1,21.8-27.8,24.1c0.4,1.8,1.5,3.4,2.9,4.5
		c-1.8-1-3.4-2.4-4.5-4c-0.8,0.2-1.7,0.5-2.5,0.8c-6.6,2.7-11.2,10.7-11.2,10.7s-4.6-8-11.2-10.7c-0.8-0.3-1.7-0.6-2.5-0.9
		c-1.2,1.7-2.7,3.1-4.5,4c1.6-1.1,2.6-2.7,2.9-4.5c-7.9-2.4-20.1-5.7-27.8-24c-9.2-22-8.8-63.7-8.8-63.7
		c11.2-6.2,23.5-10.5,36.2-12.8c-1.1-2.7-0.3-2.4,1.4-0.2c9.3-1.6,19-1.6,28.3,0c1-1.4,2.4-2.5,4-3.3c-1.3,0.9-2.2,2.1-2.6,3.6
		C281.8,233,294.1,237.3,305.5,243.5L305.5,243.5z M253.7,211.7c-1.7,2.6-4.7,4.2-7.9,4.2c-2.1-0.1-4-1-5.2-2.5
		c-1.2,2.7-4,4.4-7,4.1c-5.7,0-6.4-4.5-7-6.7c-0.8-1.9-2-3.6-3.5-5c0,0,0.8-1.3,1.8-0.8c0.8,0.4,1.8,2.5,1.8,2.5s2.3-1.6,3.5,0
		c1.3,1.6,0.3,3.1-1.8,3.3c0.5,2.4,2.7,4.1,5.2,4.2c4.3,0,5.7-2.4,5.2-4.2s-4.6-0.2-5.2-3.3s2.6-2.2,3.5-1.7c0,0-1.3-3.7,1.8-4.2
		s2.9,3.5,2.6,4.2c0,0,2.3-3.1,3.5-0.8c1.3,2.3-3.5,3.8-3.5,5s2.3,4.1,4.4,4.1c2.1,0,6.3-2.4,6.2-4.2s-3.8,0.6-4.4-3.3
		c-0.5-4,3.5-1.8,4.4-0.8c0,0-2.1-5,1.8-5c3.8,0,1.8,5,1.8,5c0.8-0.9,4.9-3.2,4.4,0.8s-4.3,1.5-4.4,3.3c-0.1,1.9,4,4.2,6.1,4.2
		c2.1,0,4.4-2.9,4.4-4.2c0-1.2-4.7-2.7-3.5-5s3.5,0.8,3.5,0.8c-0.3-0.7-0.3-4.7,2.6-4.2c2.9,0.5,1.8,4.2,1.8,4.2
		c0.8-0.5,4.2-1.5,3.5,1.7c-0.6,3.2-4.9,1.6-5.2,3.3c-0.3,1.8,0.9,4.2,5.2,4.2c2.5-0.1,4.7-1.8,5.2-4.2c-2.1-0.2-2.9-1.8-1.8-3.3
		c1.3-1.6,3.5,0,3.5,0s0.8-2.1,1.8-2.5c0.8-0.4,1.8,0.8,1.8,0.8c-1.5,1.5-2.6,3.2-3.5,5c-0.6,2.2-1.3,6.6-7,6.7c-3,0.3-6-1.4-7-4.2
		c-1.4,1.5-3.3,2.4-5.2,2.5C258.4,215.7,255.4,214.2,253.7,211.7z M251.2,190.2c0-0.1,0.1-0.3,0.1-0.4c1.4,1.1,3.4,1.1,4.8,0
		c0.1,0.1,0.1,0.3,0.1,0.4c0,0.7-1.2,1.2-2.5,1.2C252.4,191.4,251.1,190.8,251.2,190.2L251.2,190.2z M239.4,201
		c0.3-5.4,4.9-9.6,10.5-9.7C245.1,192.9,241.1,196.4,239.4,201L239.4,201z M224.1,204.6c5.4-6.4,12.7-11,21-13
		C237.3,194.6,230.2,199,224.1,204.6z M268,200.9c-1.8-4.6-5.7-8.1-10.5-9.6C263.2,191.4,267.8,195.6,268,200.9z M283.2,204.6
		c-6.1-5.6-13.2-10-21-13C270.5,193.7,277.9,198.2,283.2,204.6z M253.6,199.9c-0.9-2.5-0.9-5.2,0-7.6c0.9,2.4,0.9,5.1,0.1,7.5
		L253.6,199.9z M230.3,221.1c7.7-1.7,15.4-2.5,23.2-2.5c7.8,0,15.4,0.8,23,2.5v4c-7.6-1.6-15.1-2.4-22.9-2.5
		c-7.7,0.1-15.3,1-22.9,2.5L230.3,221.1z"/>
</g>
<path class="st1" d="M228.8,281.3l15.4-10v5.3l-10.6,6.6v0.2l10.6,6.6v5.3l-15.4-10V281.3z M249.4,300.7h-4.9l13.2-34.8h4.9
	L249.4,300.7z M278.2,285.4l-15.4,10v-5.3l10.6-6.6v-0.2l-10.6-6.6v-5.3l15.4,10V285.4z"/>
</svg>
