<?xml version="1.0" encoding="utf-8"?>
<svg xmlns="http://www.w3.org/2000/svg" viewBox="0 0 603 182">
	<path d="M374,142.2c-35,25.8-85.7,39.6-129.4,39.6c-61.2,0-116.4-22.7-158.1-60.3c-3.3-3-0.3-7,3.6-4.7
		c45,26.2,100.7,41.9,158.2,41.9c38.8,0,81.4-8,120.6-24.7C374.8,131.5,379.8,137.9,374,142.2 M388.6,125.5
		c-4.5-5.7-29.6-2.7-40.8-1.4c-3.4,0.4-4-2.6-0.9-4.7c20-14.1,52.8-10,56.7-5.3c3.8,4.7-1,37.6-19.8,53.4c-2.9,2.4-5.6,1.1-4.4-2.1
		C383.6,154.9,393,131.3,388.6,125.5 M548,105.5h-18.6c-1.9-0.1-3.4-1.6-3.4-3.5l0-95.7c0.2-1.8,1.7-3.1,3.6-3.1h17.3
		c1.6,0.1,3,1.2,3.3,2.7v14.6h0.3C555.8,7.4,563.1,1.2,576,1.2c8.4,0,16.5,3,21.8,11.3c4.9,7.7,4.9,20.5,4.9,29.8v60.2
		c-0.2,1.7-1.8,3-3.6,3h-18.7c-1.7-0.1-3.1-1.4-3.3-3v-52c0-10.5,1.2-25.8-11.7-25.8c-4.5,0-8.7,3-10.8,7.7c-2.6,5.8-3,11.7-3,18.1
		V102C551.6,103.9,550,105.5,548,105.5 M469.5,1.2c27.7,0,42.6,23.8,42.6,54c0,29.2-16.5,52.3-42.6,52.3c-27.2,0-41.9-23.8-41.9-53.4
		C427.6,24.3,442.5,1.2,469.5,1.2 M469.7,20.7c-13.7,0-14.6,18.7-14.6,30.4c0,11.7-0.2,36.7,14.4,36.7c14.4,0,15.1-20.1,15.1-32.4
		c0-8.1-0.3-17.7-2.8-25.4C479.8,23.3,475.6,20.7,469.7,20.7 M348.5,20.1V6.4c0-2.1,1.6-3.5,3.5-3.5h61.3c2,0,3.5,1.4,3.5,3.5v11.7
		c0,2-1.7,4.5-4.6,8.6L380.4,72c11.8-0.3,24.3,1.5,34.9,7.5c2.4,1.4,3.1,3.4,3.3,5.3v14.6c0,2-2.2,4.3-4.5,3.1
		c-18.8-9.9-43.9-11-64.7,0.1c-2.1,1.2-4.4-1.2-4.4-3.1V85.7c0-2.2,0-6,2.3-9.4L384,23.5h-32C350.1,23.5,348.5,22.1,348.5,20.1
		M299.7,59.8v-4c-13.5,0-27.7,2.9-27.7,18.8c0,8,4.2,13.5,11.3,13.5c5.2,0,9.9-3.2,12.9-8.5C299.8,73.1,299.7,67,299.7,59.8
		M318.5,105.2c-1.2,1.1-3,1.2-4.4,0.4c-6.2-5.1-7.3-7.5-10.7-12.4c-10.2,10.4-17.5,13.6-30.7,13.6c-15.7,0-27.9-9.7-27.9-29
		c0-15.1,8.2-25.4,19.9-30.5c10.1-4.5,24.3-5.2,35.1-6.5v-2.4c0-4.4,0.3-9.7-2.3-13.5c-2.3-3.4-6.6-4.9-10.5-4.9
		c-7.1,0-13.4,3.6-15,11.2c-0.3,1.7-1.5,3.3-3.2,3.4l-18.1-1.9c-1.5-0.3-3.2-1.6-2.8-3.9c4.2-21.9,24-28.5,41.7-28.5
		c9.1,0,20.9,2.4,28.1,9.3c9.1,8.5,8.2,19.8,8.2,32.1v29c0,8.7,3.6,12.6,7,17.3c1.2,1.7,1.5,3.7-0.1,5
		C329,96,322.2,101.9,318.5,105.2L318.5,105.2 M125,105.5h-18.6c-1.8-0.1-3.2-1.5-3.3-3.2V6.6c0-1.9,1.6-3.4,3.6-3.4H124
		c1.8,0.1,3.3,1.5,3.4,3.2v12.5h0.3c4.5-12.1,13.1-17.7,24.5-17.7c11.7,0,19,5.6,24.2,17.7C181,6.8,191.2,1.2,202.2,1.2
		c7.8,0,16.4,3.2,21.6,10.5c5.9,8,4.7,19.7,4.7,30l0,60.4c0,1.9-1.6,3.5-3.6,3.5h-18.6c-1.9-0.1-3.4-1.6-3.4-3.5V51.3
		c0-4,0.4-14.1-0.5-17.9c-1.4-6.4-5.6-8.2-11-8.2c-4.5,0-9.2,3-11.1,7.8c-1.9,4.8-1.7,12.9-1.7,18.3V102c0,1.9-1.6,3.5-3.6,3.5h-18.6
		c-1.9-0.1-3.4-1.6-3.4-3.5l0-50.7c0-10.7,1.8-26.4-11.5-26.4c-13.4,0-12.9,15.3-12.9,26.4V102C128.6,103.9,127,105.5,125,105.5
		M55.3,59.8v-4c-13.5,0-27.7,2.9-27.7,18.8c0,8,4.2,13.5,11.3,13.5c5.2,0,9.9-3.2,12.9-8.5C55.5,73.1,55.3,67,55.3,59.8 M74.1,105.2
		c-1.2,1.1-3,1.2-4.4,0.4c-6.2-5.1-7.3-7.5-10.7-12.4c-10.2,10.4-17.5,13.6-30.7,13.6c-15.7,0-27.9-9.7-27.9-29
		c0-15.1,8.2-25.4,19.9-30.5c10.1-4.5,24.3-5.2,35.1-6.5v-2.4c0-4.4,0.3-9.7-2.3-13.5c-2.3-3.4-6.6-4.9-10.5-4.9
		c-7.1,0-13.4,3.6-15,11.2c-0.3,1.7-1.5,3.3-3.2,3.4L6.3,32.7c-1.5-0.3-3.2-1.6-2.8-3.9C7.7,6.9,27.4,0.2,45.2,0.2
		c9.1,0,20.9,2.4,28.1,9.3c9.1,8.5,8.2,19.8,8.2,32.1v29c0,8.7,3.6,12.6,7,17.3c1.2,1.7,1.5,3.7-0.1,5C84.6,96,77.9,101.9,74.1,105.2
		L74.1,105.2" />
</svg>
