<?xml version="1.0" encoding="utf-8"?>
<svg xmlns="http://www.w3.org/2000/svg" viewBox="0 0 204.2 52.8">
<path d="M42.4,20.8c0,2.5-1.6,4.4-4.7,5.6c-2.4,1-5.3,1.4-8.8,1.4H14.7c-3.7,0-6.9-0.4-9.4-1.3C1.8,25.4,0,23.5,0,20.9V7.1
	c0-2.5,1.8-4.3,5.4-5.5c2.8-0.9,5.9-1.3,9.3-1.3h5.6c1.5,0,2.3,0.7,2.3,2c0,1.4-0.8,2.1-2.3,2.1h-1.7c-0.2,0-0.3,0-0.3,0
	c-0.4,0-0.8,0-1.2,0c-0.3,0-0.6,0-0.8,0C9.6,4.3,6.3,5.2,6.3,7.1v13.8c0,1.9,2.8,2.8,8.5,2.8h14.2c1.3,0,2.8-0.2,4.3-0.6
	c1.9-0.5,2.9-1.2,2.9-2.1v-2.9h-8.8c-1.2,0-2.1-1-2.1-2.2c0-1.2,1-2.2,2.1-2.2h10.6c0.5-0.1,1.3,0,2.3,0c1.5,0,2.2,0.6,2.2,1.8V20.8
	 M79.3,21v-8.4c0-1.7-2.4-2.6-7.3-2.6h-9.7c-1.8,0-3.4,0.2-4.9,0.6c-2,0.6-3,1.3-3,2.4v8c0,1,1,1.8,3.1,2.3c1.4,0.3,3,0.5,4.9,0.5
	H72c1.6,0,3.1-0.2,4.5-0.5C78.3,22.7,79.3,21.9,79.3,21 M85.3,21c0,2.5-1.5,4.3-4.6,5.4c-2.1,0.9-5,1.3-8.6,1.3h-9.9
	c-3.3,0-6.2-0.5-8.9-1.3c-3.3-1.2-4.9-3-4.9-5.4v-8c0-2.4,1.6-4.3,4.9-5.5c2.4-1,5.4-1.4,8.9-1.4h9.9c8.8,0,13.2,2.3,13.2,6.9V21z
	 M157.4,8.2c0,1.2-0.9,1.8-2.7,1.8c-0.2,0-0.6,0-1,0h-1.1c-4.6,0-6.8,0.9-6.8,2.7v13.2c0,0.9-0.5,1.4-1.3,1.7
	c-0.3,0.1-1.2,0.1-2.6,0.1c-1.4,0-2.1-0.6-2.1-1.8V12.7c0-2.9,1.8-4.8,5.4-5.8c2.2-0.7,5.5-0.9,9.9-0.9C156.7,6,157.4,6.8,157.4,8.2
	 M192.4,21v-8.4c0-1.7-2.4-2.6-7.3-2.6h-9.7c-1.8,0-3.4,0.2-4.9,0.6c-2,0.6-3,1.3-3,2.4v8c0,1,1,1.8,3.1,2.3c1.4,0.3,3,0.5,4.9,0.5
	h9.7c1.6,0,3.1-0.2,4.5-0.5C191.4,22.7,192.4,21.9,192.4,21 M198.4,21c0,2.5-1.5,4.3-4.6,5.4c-2.1,0.9-5,1.3-8.6,1.3h-9.9
	c-3.3,0-6.2-0.5-8.9-1.3c-3.3-1.2-4.9-3-4.9-5.4v-8c0-2.4,1.6-4.3,4.9-5.5c2.4-1,5.4-1.4,8.9-1.4h9.9c8.8,0,13.2,2.3,13.2,6.9V21z
	 M128.2,10.3V6.5c0-1.6-2.7-2.4-8.2-2.4H97.8v9.6H120C125.5,13.7,128.2,12.5,128.2,10.3 M134.4,10.4c0,2.7-1.7,4.7-5.2,6
	c-2.7,0.9-5.9,1.3-9.6,1.3H97.8v8.1c0,0.9-0.4,1.4-1.3,1.7c-0.2,0.1-1.2,0.1-2.7,0.1c-1.4,0-2.2-0.6-2.2-1.8V1.8
	c0-1.2,0.8-1.8,2.2-1.8H120c3.5,0,6.5,0.4,9,1.2c3.7,1.1,5.4,2.8,5.4,5V10.4L134.4,10.4z M67.6,43.8c-0.3,1.1-0.1,2.4,0.2,2.9
	c0.3,0.5,1.1,0.9,1.8,0.9c0.7,0,1.6-0.3,2.1-0.8c0.5-0.5,1.1-1.6,1.4-2.8c0.2-1,0.1-2-0.2-2.5c-0.3-0.5-1.1-1.1-1.7-1.1
	c-0.6,0-1.6,0.3-2.1,0.8C68.5,41.7,67.9,42.7,67.6,43.8 M64.7,43.9c0.4-1.8,1.5-3.3,2.7-4.3c1.2-1,2.6-1.2,4.3-1.2
	c1.7,0,2.9,0.7,3.6,1.7c0.7,1,1,2.3,0.6,4.1c-0.3,1.3-0.8,2.3-1.4,3.1c-0.6,0.8-1.4,1.3-2.3,1.8c-0.9,0.5-1.9,0.6-3,0.6
	c-1.1,0-2-0.2-2.7-0.6c-0.6-0.4-1.4-1-1.7-1.9C64.6,46.4,64.4,45.2,64.7,43.9 M53.3,49.4l2.4-10.8l4.9,0c0.1,0,3.6-0.2,3.5,2.8
	c-0.1,2.2-1.1,2.4-3,3.4c1,1.6,1.3,2.5,2.6,4.5h-3.2c-0.4-1-1.9-3.9-1.9-3.9l-1.7,0L56,49.4L53.3,49.4 M57.4,43.5h1.9
	c1.8,0,2.6-2.8,0.8-2.8l-2,0L57.4,43.5z M46.4,38.6l7.8,0l-0.4,2l-5,0l-0.5,1.9l4.7,0l-0.4,2.1h-4.8l-0.6,2.7l4.9-0.1l-0.3,2.1
	l-7.9-0.1L46.4,38.6z M34.7,38.6l2.8,0l-1,3.9l4.1,0.1l0.9-4l2.8,0l-2.5,10.7l-2.8,0l1.1-4.7l-4.1,0L35,49.4l-2.8,0L34.7,38.6z
	 M76,49.4h2.6l0.7-2.8h-2.6L76,49.4z M86.3,34.5h23.8v18.2H86.3V34.5z M115,34.5h23.8v18.2H115V34.5z M144,34.5h23.8v18.2H144V34.5z
	 M173.5,34.5h23.8v18.2h-23.8V34.5z M10,44.3c0.9-0.2,1.4-0.9,1.4-2.3c-0.1-1.6-1-2.5-2.7-2.6c-1.8,0-3.6,0-5.3,0v9.9h5.8
	c1.6,0.1,2.4-0.8,2.4-2.6C11.7,45.5,11.2,44.6,10,44.3z M5.4,41.1c1,0,2,0,3,0c0.6,0.1,1,0.6,1,1.3c0,0.8-0.4,1.2-1.2,1.2
	c-0.9,0-1.9,0-2.9,0V41.1z M8.5,47.8c-1,0-2,0-3.1,0v-2.8c1.1,0,2.2,0.1,3.2,0c0.7,0.1,1.1,0.6,1.1,1.4C9.8,47.4,9.3,47.8,8.5,47.8z
	 M16.8,47.2c0,0.8-0.3,1.1-0.9,1.1c-0.4,0-0.7,0-1.1,0c-0.9,0-1.3-0.7-1.1-2.1h4.7v-1.5c0-1.3-1.1-2.3-2.4-2.3h-1.8
	c-1.3,0-2.4,1-2.4,2.3v2.5c0,1.3,1.1,2.3,2.4,2.3h1.8c1.3,0,2.4-1,2.4-2.3v0H16.8z M15.3,43.6c1.1,0,1.5,0.5,1.4,1.6c-1,0-2,0-3,0
	C13.6,44.1,14.2,43.6,15.3,43.6z M26.4,42.4c-0.9,0-1.7,0-2.6,0c-1.1,0.3-1.6,1-1.5,2.1h1.8c0-0.6,0.4-1,1.3-1
	c0.8,0,1.2,0.3,1.3,0.7c0,0.6,0,1.1,0,1.7c-0.4-0.5-1.2-0.7-2.3-0.8c-1.7,0.2-2.6,1-2.5,2.4c0.1,1.3,1,1.9,2.7,2
	c0.9,0,1.6-0.2,2.1-0.8c0,0.3,0,0.5,0,0.8h1.7c0-1.8,0-3.7,0-5.5C28.1,43,27.4,42.5,26.4,42.4z M26.1,48.3c-1.4,0.3-2.2,0.1-2.4-0.6
	c-0.2-0.6,0.1-1,0.7-1.3c1.2-0.2,1.9,0,2.3,0.6C26.9,47.7,26.6,48.1,26.1,48.3z M201.6,25.3c-1.4,0-2.5,1.1-2.5,2.5
	c0,1.4,1.1,2.5,2.5,2.5c1.4,0,2.5-1.1,2.5-2.5C204.2,26.4,203,25.3,201.6,25.3z M201.6,30c-1.2,0-2.2-1-2.2-2.2s1-2.2,2.2-2.2
	c1.2,0,2.2,1,2.2,2.2S202.8,30,201.6,30z M202.5,28.2c-0.1-0.1-0.2-0.2-0.3-0.3c0,0-0.1-0.1-0.2-0.1c0.2,0,0.4-0.1,0.5-0.2
	c0.1-0.1,0.2-0.3,0.2-0.4c0-0.1,0-0.3-0.1-0.4c-0.1-0.1-0.2-0.2-0.3-0.2c-0.1,0-0.3-0.1-0.5-0.1h-1.1v2.4h0.3v-1.1h0.4
	c0.1,0,0.1,0,0.2,0c0.1,0,0.1,0,0.1,0.1c0,0,0.1,0.1,0.2,0.2c0.1,0.1,0.1,0.2,0.2,0.3l0.3,0.5h0.4L202.5,28.2z M201.8,27.5h-0.7
	v-0.8h0.8c0.2,0,0.3,0,0.4,0.1c0.1,0.1,0.1,0.2,0.1,0.3c0,0.1,0,0.2-0.1,0.2c0,0.1-0.1,0.1-0.2,0.1C202,27.5,201.9,27.5,201.8,27.5z
	"/>
</svg>
