<?xml version="1.0" encoding="utf-8"?>
<svg xmlns="http://www.w3.org/2000/svg" viewBox="0 0 182.97 29.45">
	<path d="M134.56,14.38l-.17.06c-.11-.14-.22-.27-.32-.41-2.34-3.42-4.7-6.83-7-10.27A1.47,1.47,0,0,0,125.6,3c-1.45.05-2.9,0-4.35,0-.61,0-.8.16-.8.78,0,6.46,0,12.91,0,19.36,0,.25,0,.5,0,.75h6V12.43c.27.36.41.54.53.72l7.1,10.3c.14.19.36.47.54.47,1.93,0,3.87,0,5.84,0V3.08h-6v11.3Z" />
	<path d="M108.58,7.43h10.85V3.08H102.11v20.8h17.62V19.27h-2.92c-2.52,0-5,0-7.55,0-.24,0-.67-.22-.68-.35,0-1.26,0-2.52,0-3.87h10.08V10.82h-10V7.43Z" />
	<path d="M89.74,12.12,91,14.42c2.08-.93,3.93-2.08,4.25-4.44.28-2.09.23-4.21.32-6.37H89.81v5.3h2.67c-.1,1.81-1.39,2.49-2.74,3.21Z" />
	<path d="M24.54,16c-.72-2.54-1.41-5-2.1-7.36h-.18c-.69,2.44-1.38,4.87-2.08,7.36Zm26.58,8c-1.82,0-3.57,0-5.33,0-.23,0-.52-.36-.69-.62l-6.35-10a1.62,1.62,0,0,0-.6-.63V23.87c-.29,0-.48.07-.68.07-3.35,0-6.69,0-10,0-.49,0-.74-.12-.85-.64-.16-.73-.43-1.44-.59-2.17a.73.73,0,0,0-.84-.67c-1.87,0-3.74,0-5.6,0-.57,0-.77.2-.88.71-.18.78-.4,1.55-.66,2.32a.69.69,0,0,1-.48.42c-5.78,0-11.57,0-17.35,0,0,0-.09,0-.18-.09V3.08H5.94V18.84h4c1,0,1.92,0,2.88,0a.86.86,0,0,0,1-.69c1.64-4.75,3.33-9.48,4.95-14.23A1.14,1.14,0,0,1,20.13,3c1.63.05,3.27,0,4.9,0a.79.79,0,0,1,.89.63q3.12,9,6.26,17.9a.6.6,0,0,0,.3.36V3a28.38,28.38,0,0,0,3.46,0A3,3,0,0,1,39.3,4.83c1.75,3,3.71,5.93,5.59,8.88a2.11,2.11,0,0,0,.61.68V3.08h5.62V23.94Z" />
	<path d="M77.36,16.7c.09.37.14.65.22.93a3.38,3.38,0,0,0,4.24,2.52,2.25,2.25,0,0,0,1.92-2A2.12,2.12,0,0,0,82.16,16c-.9-.32-1.83-.55-2.75-.81-2.76-.79-5.54-1.54-6.88-4.61V17l4.83-.29Zm-18-8.89c0,3.68,0,7.33,0,11,0,.16.33.45.52.45a24.32,24.32,0,0,0,2.56-.07,3.13,3.13,0,0,0,3.26-3,24.74,24.74,0,0,0,0-5.09,3.34,3.34,0,0,0-3.23-3.22,23,23,0,0,0-3.12,0ZM71.9,19.08A37.88,37.88,0,0,1,69.32,22a8.49,8.49,0,0,1-5.71,1.91c-3.57.12-7.15,0-10.79,0V3.09a1.59,1.59,0,0,1,.3-.06c3.83,0,7.67,0,11.5.12A7.9,7.9,0,0,1,72,9c0,.17.12.33.25.68a16.69,16.69,0,0,1,.15-2.08,5.8,5.8,0,0,1,4.47-4.5,14.5,14.5,0,0,1,7.76,0A5.9,5.9,0,0,1,89,8.85l-5.68.36c-.07-.2-.13-.36-.18-.53a3,3,0,0,0-4-2A1.56,1.56,0,0,0,78,8.14a1.33,1.33,0,0,0,1.1,1.33c1.4.41,2.81.73,4.2,1.13a22.26,22.26,0,0,1,2.42.83,5.88,5.88,0,0,1,4,5,6.63,6.63,0,0,1-2.9,6.32A8,8,0,0,1,83,24.15a17.77,17.77,0,0,1-6.25-.32,6.44,6.44,0,0,1-4.64-4.29c-.08-.19-.14-.38-.17-.46Z" />
	<path d="M134.56,14.38V3.08h6V23.94c-2,0-3.91,0-5.84,0-.18,0-.4-.28-.54-.47l-7.1-10.3c-.12-.18-.26-.36-.53-.72V23.9h-6c0-.25,0-.5,0-.75,0-6.45,0-12.9,0-19.36,0-.62.19-.8.8-.78,1.45,0,2.9.05,4.35,0a1.47,1.47,0,0,1,1.46.75c2.31,3.44,4.67,6.85,7,10.27.1.14.21.27.32.41l.17-.06Z" />
	<path d="M148.78,7.67a2.11,2.11,0,0,0-.12.29c0,3.6,0,7.2,0,10.8,0,.43.24.51.6.5.8,0,1.6,0,2.4-.09a3.13,3.13,0,0,0,3.17-2.76,13.91,13.91,0,0,0,0-5.71,3.3,3.3,0,0,0-2.92-2.82c-1-.15-2.05-.15-3.08-.21ZM142.22,24V3.1a2,2,0,0,1,.33-.07c3.47,0,6.95-.09,10.42.08,4.67.22,7.27,2.53,8.24,7.07a16.57,16.57,0,0,1,0,6.87,8,8,0,0,1-7.52,6.71c-1.9.21-3.83.15-5.74.18s-3.78,0-5.75,0Z" />
	<path d="M108.58,7.43v3.39h10V15H108.55c0,1.35,0,2.61,0,3.87,0,.13.44.35.68.35,2.52,0,5,0,7.55,0h2.92v4.61H102.11V3.08h17.32V7.43Z" />
	<path d="M172.86,24.88a2.17,2.17,0,0,1-.07.24l3.47,1.33c-.17-1.27-.46-1.56-1.46-1.57ZM169,7.25h1V3.47h-1V7.25Zm1.77,0h1.1V3.44h-1.1V7.26Zm-.1,15.16h2c.83,0,1-.24.92-1-.09-.61-.19-1.22-.28-1.84l-1.26-8.84c-.09-.67-.41-1-1.13-1a4.87,4.87,0,0,1-.54,0c-1,0-1.16.13-1.29,1.12L168.67,14c-.32,2.41-.65,4.82-1,7.23-.13,1,0,1.18,1.08,1.18ZM159,27.31c0-1,0-1.83,0-2.64a1.26,1.26,0,0,1,.45-.76A7.26,7.26,0,0,1,165.66,22c.51-4.1,1-8.14,1.52-12.18-1.05-.22-1-.22-1-1.7,0-.54.05-1,.84-.82,0-1.27,0-2.48,0-3.68,0-.56-.34-1.1-.37-1.65a1,1,0,0,1,.53-.79A17.64,17.64,0,0,1,169.69.09a1.75,1.75,0,0,1,.57-.09h0a2.55,2.55,0,0,1,.74.11A19.72,19.72,0,0,1,173.1,1c1.08.47,1.24.81,1.08,2s-.22,2.23-.31,3.35c0,.3,0,.61,0,1,1.4,0,.76,1.06.89,1.71s-.13.84-.79.79l.7,5.2c.29,2.13.59,4.26.86,6.4a1.19,1.19,0,0,0,1.11,1.24,1.41,1.41,0,0,1,.83.8,20.42,20.42,0,0,1,.9,2.56c.16.54.47.68.91.48,1-.45,1.94-1,2.9-1.44a7.12,7.12,0,0,0,.8-.61c-.06,1.08-.09,2-.19,2.91,0,.19-.23.39-.41.52a6.71,6.71,0,0,1-4.12,1.65h0a5.86,5.86,0,0,1-1.93-.36c-1.6-.58-3.12-1.38-4.67-2.08s-2.92-1.47-4.45-2a6.9,6.9,0,0,0-7.11,1.44c-.29.24-.58.51-1,.88Z" />
	<path d="M89.74,12.12c1.35-.72,2.64-1.4,2.74-3.21H89.81V3.61h5.75c-.09,2.16,0,4.28-.32,6.37-.32,2.36-2.17,3.51-4.25,4.44l-1.25-2.3Z" />
	<path d="M169.3,19.34V17.22c1-.22,1-.18,1,.72v.62c0,.94,0,1-1,.78Z" />
	<path d="M170.32,11.6c.85-.23,1.19,0,1.1.76a5.76,5.76,0,0,0,0,.93c0,.39-.16.64-.54.52a.83.83,0,0,1-.53-.52,13.62,13.62,0,0,1,0-1.69Z" />
</svg>
