<?xml version="1.0" encoding="utf-8"?>
<svg xmlns="http://www.w3.org/2000/svg" viewBox="0 0 410.98 185.99">
	<path d="M211.4,69.9s1.5,20.5-15,21.5V50.9S208.9,49.9,211.4,69.9ZM393.08,32.3a1.48,1.48,0,0,0,.24-.82,1.39,1.39,0,0,0-.47-1.07,2.24,2.24,0,0,0-1.5-.42h-2.9v3h2.61a3.75,3.75,0,0,0,1.3-.18A1.38,1.38,0,0,0,393.08,32.3ZM130.4,122.9h13l-7-41.5ZM398.57,33.65a7.92,7.92,0,1,1-7.92-7.91A7.93,7.93,0,0,1,398.57,33.65Zm-3.26,4.51-1.59-2.5a6.28,6.28,0,0,0-1-1.22A3.3,3.3,0,0,0,392,34a3.17,3.17,0,0,0,2-.85,2.31,2.31,0,0,0,.63-1.65,2.65,2.65,0,0,0-.38-1.38,2.11,2.11,0,0,0-1-.88A5.61,5.61,0,0,0,391.3,29h-4.07v9.18h1.22V34.08h1.41a3.35,3.35,0,0,1,.67.05,1.61,1.61,0,0,1,.56.24,2.89,2.89,0,0,1,.61.61c.23.3.53.72.88,1.27l1.21,1.91ZM411,0V186H0V0ZM345.9,26.9h-69l-12,70L253.4,26.4H228.9l3,22.5c-7-19.5-21-22-21-22H170.4v122l-19-122.5H120.9L101.4,148.9V26.4h-30l-12.5,57-11-57h-31v136l25-.5v-49l11,49.5H65.4l12-50v50h46l4-13h18.5l2.5,13h48.5V116.9l17,45.5h24l-17.5-52c13.5-11,16-35,16-35l14.5,87h27.5l23-131v131h44.5V134.9h-20v-26h19V80.4H325.4v-28h20.5Zm51.5,108.5H377.9V26.4h-23V162.9h42.5Zm2.83-101.75a9.58,9.58,0,1,0-9.58,9.59A9.59,9.59,0,0,0,400.23,33.65Z" />
</svg>
