<?xml version="1.0" encoding="utf-8"?>
<svg version="1.1" xmlns="http://www.w3.org/2000/svg" viewBox="0 0 397 101.4">
<path d="M130.7,52.4l6.6-10.4h3.1v19.1h-3.5V48.8l-6.2,9.7l-6.3-9.6v12.3h-3.5V42h3.1l0.1,0.1L130.7,52.4L130.7,52.4z M161.7,51.6
	c0-3.7-2.8-6.5-6.4-6.5c-3.6,0-6.4,2.9-6.4,6.5c0,3.7,2.8,6.5,6.4,6.5C158.9,58.1,161.7,55.3,161.7,51.6L161.7,51.6z M155.3,41.6
	c5.7,0,10.1,4.4,10.1,9.9c0,5.6-4.4,9.9-10.1,9.9c-5.7,0-10.1-4.3-10.1-9.9C145.2,46,149.6,41.6,155.3,41.6L155.3,41.6z M180.1,55.2
	c0-1.4-1.2-2.5-2.8-2.5h-3.6v5h3.6C179,57.7,180.1,56.6,180.1,55.2L180.1,55.2z M173.8,49.5h2.8c1.3,0,2.3-0.9,2.3-2.2
	c0-1.2-1-2-2.2-2h-2.8L173.8,49.5L173.8,49.5z M180.4,50.7c2.1,0.6,3.4,2.3,3.4,4.7c0,3.3-2.5,5.7-5.9,5.7h-7.9V42h7
	c3.1,0,5.4,2.1,5.4,5C182.5,48.6,181.7,50,180.4,50.7L180.4,50.7z M189.1,61.1h3.7V42h-3.7V61.1L189.1,61.1z M202.9,42h-3.7v19.1
	h11.2v-3.4h-7.5L202.9,42L202.9,42z M218.6,52.9h8.1v-3.4h-8.1v-4.1h8.6V42h-12.3v19.1h12.5v-3.4h-8.8L218.6,52.9L218.6,52.9z
	 M259,51.6c0-4.1-2.2-6.2-6.6-6.2h-2.9v12.4h3C257.8,57.7,259,54.4,259,51.6L259,51.6z M252.6,42c6.2,0,10,3.7,10,9.6
	c0,5.9-3.8,9.5-10,9.5h-6.9V42H252.6L252.6,42z M282.9,51.6c0-3.7-2.8-6.5-6.4-6.5c-3.6,0-6.4,2.9-6.4,6.5c0,3.7,2.8,6.5,6.4,6.5
	C280.1,58.1,282.9,55.3,282.9,51.6L282.9,51.6z M276.4,41.6c5.7,0,10.1,4.4,10.1,9.9c0,5.6-4.4,9.9-10.1,9.9
	c-5.7,0-10.1-4.3-10.1-9.9C266.3,46,270.8,41.6,276.4,41.6L276.4,41.6z M306.2,51.6c0-3.7-2.8-6.5-6.4-6.5c-3.6,0-6.4,2.9-6.4,6.5
	c0,3.7,2.8,6.5,6.4,6.5C303.4,58.1,306.2,55.3,306.2,51.6L306.2,51.6z M299.7,41.6c5.7,0,10.1,4.4,10.1,9.9c0,5.6-4.4,9.9-10.1,9.9
	c-5.7,0-10.1-4.3-10.1-9.9C289.6,46,294.1,41.6,299.7,41.6L299.7,41.6z M324.6,48.1c0-1.6-1.1-2.8-2.7-2.8h-3.7V51h3.4
	C323.4,51,324.6,49.9,324.6,48.1L324.6,48.1z M328.3,48.1c0,2.4-1.3,4.5-3.4,5.4l4.6,7.6h-4.2l0-0.1l-4-6.6h-3.1v6.7h-3.7V42h7.5
	C325.5,42,328.3,44.7,328.3,48.1L328.3,48.1z M344.4,52.4L337.8,42l0-0.1h-3.1v19.1h3.5V48.8l6.3,9.6l6.2-9.7v12.3h3.5V42H351
	L344.4,52.4L344.4,52.4z M370.4,54.2l-2.9-7l-2.9,7H370.4L370.4,54.2z M369,42L369,42l8,19.1h-3.9l-1.5-3.8h-8.1l-1.5,3.8h-3.9
	l8-19.1H369L369,42z M393.4,42v12.7L383.8,42l0-0.1h-3.2v19.1h3.6v-13l9.9,12.9l0,0.1h3V42H393.4L393.4,42z M67.5,65.2V32.5h-4.8
	L50.9,51.2l-12-18.7h-4.8v32.7h5.3V42.5l11.5,17.7l11.4-17.7v22.8L67.5,65.2L67.5,65.2z M18.1,47.9c1.4-16.9,15.5-30.1,32.7-30.1
	s31.3,13.2,32.7,30.1h4.7c-1.4-19.4-17.7-34.8-37.5-34.8c-10,0-19.5,3.9-26.6,11C17.8,30.6,14,38.9,13.4,47.9H18.1L18.1,47.9z
	 M83.6,53.5c-1.4,16.8-15.5,30-32.7,30s-31.3-13.2-32.7-30h-4.7c1.5,19.4,17.7,34.7,37.4,34.7s36-15.3,37.4-34.7L83.6,53.5
	L83.6,53.5z M48,96.7c-24.2-1.5-43.3-21.4-43.3-46S23.9,6.2,48,4.7V0C21.3,1.5,0,23.6,0,50.7s21.3,49.2,48,50.7V96.7L48,96.7z
	 M53.7,0v4.7c24.2,1.5,43.3,21.5,43.3,46s-19.2,44.5-43.3,46v4.7c26.7-1.5,48-23.6,48-50.7C101.7,23.6,80.4,1.5,53.7,0L53.7,0z"/>
</svg>
