<?xml version="1.0" encoding="utf-8"?>
<!-- Generator: Adobe Illustrator 23.0.3, SVG Export Plug-In . SVG Version: 6.00 Build 0)  -->
<svg version="1.1" id="Layer_1" xmlns="http://www.w3.org/2000/svg" xmlns:xlink="http://www.w3.org/1999/xlink" x="0px" y="0px"
	 viewBox="0 0 184.8 45.1" style="enable-background:new 0 0 184.8 45.1;" xml:space="preserve">
<polygon points="21.9,23.1 8.7,0.7 0,0.7 0,44.7 9.3,44.7 9.3,20.3 18.7,35.5 25.2,35.5 33.9,20.5 33.9,44.7 43.2,44.7 43.2,0.7 
	34.4,0.7 "/>
<polygon points="184.8,9.3 184.8,0.6 155.7,0.6 155.7,44.7 184.8,44.7 184.8,36 165,36 165,26.8 183,26.8 183,18.2 165,18.2 
	165,9.3 "/>
<path d="M72.1,44.9c-12.3,0-22.4-10-22.4-22.4c0-12.3,10-22.4,22.4-22.4c12.3,0,22.4,10,22.4,22.4S84.4,44.9,72.1,44.9 M72.1,9.5
	C64.9,9.5,59,15.4,59,22.6s5.9,13.1,13.1,13.1s13.1-5.9,13.1-13.1S79.3,9.5,72.1,9.5"/>
<path d="M101.4,43.6c5.5,0,8.8-0.4,11.4-1.5c2.7-1,5-2.7,7.8-5.5l17.5-17.9c1-1,3-3,9.3-3l0.1,0V9.3l-0.1,0h-0.1
	c-8.6,0-10.2,1.2-13.8,4.9L116,32c-3.8,3.8-5.6,5.2-14.6,5.2l0,0v6.9l0,0V43.6z M147.3,37.1L147.3,37.1c-9,0-10.7-1.3-14.6-5.1
	l-3-3.1l-5,5.1l3.1,3.1c2.5,2.5,4.9,4.5,8,5.6c2.8,1.1,6.3,1.5,11.6,1.5l0.1,0v-7.1L147.3,37.1z M147.3,28.8c-6.1,0-7.8-1.8-8.8-2.7
	l-3.2-3l-4.9,5l3.1,3.1c3.7,3.7,5.3,4.8,13.8,4.8l0.2,0v-7.2L147.3,28.8z M110.3,19c-1-0.9-2.7-2.7-8.8-2.7l-0.1,0V9.1l0.1,0
	c8.5,0,10.1,1.1,13.8,4.8l3.1,3.3l-5,5L110.3,19z M101.5,8.1L101.5,8.1l-0.1-6.8c5.3,0,8.7,0.4,11.5,1.5c3.1,1.1,5.5,3.1,8,5.6
	l3.1,3.1l-4.8,4.9l-3.1-3.2C112.2,9.4,110.5,8.1,101.5,8.1z M147.5,8.1c-9,0-10.8,1.4-14.6,5.2l-17.5,17.9
	c-3.6,3.7-5.2,4.9-13.8,4.9l-0.2,0v-6.6l0.2,0c6.1,0,8-1.9,9-2.8l8.9-9l0.5-0.5l0,0l8.3-8.4c2.8-2.8,5.1-4.5,7.8-5.5
	c2.8-1.1,6.1-1.6,11.2-1.6l0.2,0V8.1z"/>
</svg>
